<svg width="20" height="13" viewBox="0 0 20 13" fill="none" xmlns="http://www.w3.org/2000/svg">
<path fill-rule="evenodd" clip-rule="evenodd" d="M13.1956 12.2007C13.5826 12.5947 14.2158 12.6004 14.6098 12.2134L19.7007 7.21345C19.8922 7.02542 20 6.76834 20 6.5C20 6.23166 19.8922 5.97458 19.7007 5.78655L14.6098 0.786551C14.2158 0.399561 13.5826 0.405265 13.1956 0.799292C12.8087 1.19332 12.8144 1.82646 13.2084 2.21345L16.5547 5.5L1 5.5C0.447715 5.5 0 5.94771 0 6.5C0 7.05228 0.447715 7.5 1 7.5L16.5547 7.5L13.2084 10.7866C12.8144 11.1735 12.8087 11.8067 13.1956 12.2007Z" fill="white"/>
</svg>
