<svg width="108" height="14" viewBox="0 0 108 14" fill="none" xmlns="http://www.w3.org/2000/svg">
<path d="M64.574 12.4265C64.1639 12.6397 63.5488 12.7729 63.6513 13.1726C63.6513 13.2526 63.395 13.2792 63.2412 13.2792C62.421 13.2792 62.1134 13.0927 62.1134 12.693C62.1134 12.613 62.1134 12.5331 61.9084 12.5064C61.7546 12.5064 61.5495 12.5597 61.6008 12.4265C61.6008 12.3465 61.7546 12.3199 61.9084 12.3199C62.2159 12.2932 62.4723 12.2399 62.3185 12.0267C62.216 11.8935 61.8058 11.8135 61.3957 11.8668C61.3957 11.8935 61.3957 11.9201 61.3957 11.9201C61.5495 11.9734 61.8571 11.9201 61.9084 12.08C61.9084 12.1866 61.6521 12.2133 61.5496 12.16C61.3445 12.0534 60.8831 12.2666 60.8831 11.9734C60.8831 11.8402 60.8831 11.7336 60.7293 11.627C60.6268 11.5204 60.4218 11.4671 60.2167 11.4671C60.0117 11.4671 59.9604 11.5737 59.8579 11.6536C59.7041 11.7336 59.7554 12.1866 59.1915 11.8135C59.1402 11.7602 58.9864 11.7869 58.9352 11.8402C58.7814 11.9201 58.7814 12.0267 58.8326 12.1333C58.8839 12.2133 58.9865 12.2133 59.1402 12.1866C59.6529 12.08 60.0117 12.1333 60.2167 12.4531C60.3193 12.6397 60.6268 12.7729 60.8319 12.9594C60.5243 12.9061 60.2167 12.8262 59.9604 13.0127C59.4991 12.8529 59.4478 12.9594 59.4478 13.1726C59.4478 13.2526 59.2427 13.2526 59.1915 13.1726C58.9864 13.0127 58.9864 12.8795 59.294 12.7196C59.3965 12.6663 59.6016 12.5597 59.4478 12.4531C59.294 12.3732 59.1402 12.3732 58.8839 12.3998C58.5251 12.4531 58.2175 12.5864 57.9612 12.7196C57.7049 12.8262 58.0125 12.8529 58.2175 12.8529C58.4738 12.8529 58.6789 12.8795 58.5251 13.0394C58.5251 13.066 58.4226 13.1193 58.4226 13.1193C58.115 13.0127 57.8074 12.9062 57.5511 12.7996C57.3461 12.7196 57.3973 12.6663 57.5511 12.5864C57.7561 12.4265 57.7562 12.2666 57.3973 12.16C57.2435 12.1333 57.1923 12.0534 57.141 11.9734C56.936 11.6803 56.8847 11.6803 56.4746 11.8668C56.2696 11.9468 56.0132 11.9734 55.7569 11.9734C55.6031 11.9734 55.3981 12.0001 55.3981 11.8935C55.3469 11.8135 55.5519 11.8135 55.6544 11.7602C55.9107 11.6536 55.9107 11.6536 55.7057 11.3872C55.6544 11.8135 54.9368 11.7336 54.3729 11.9734C54.6805 11.6536 54.5779 11.4937 54.0653 11.4937C53.3476 11.4937 53.3476 11.7869 53.3476 12.0534C53.1426 12.0534 53.0913 11.9734 53.0401 11.9201C52.9888 11.7869 52.835 11.7336 52.5787 11.7336C52.3224 11.7602 52.2711 11.8402 52.2711 11.9468C52.2711 12.0267 52.3224 12.1333 52.1173 12.16C51.9123 12.1866 52.0148 12.0001 51.9636 12.0267C51.7073 12.1866 51.3484 12.08 51.0409 12.1333C50.6308 12.2133 50.8358 12.3998 50.9383 12.6397C50.2719 12.3199 49.8106 12.3998 49.503 12.7196C49.2467 12.5064 49.503 12.3465 49.5543 12.1866C49.708 11.7602 49.6055 11.6536 48.7853 11.7069C48.0164 11.7602 47.2475 11.6536 46.4785 11.8135C46.171 11.8668 45.9146 11.6536 45.5046 11.7069C44.6844 11.8135 44.5819 11.8135 44.6331 12.2666C44.6331 12.3199 44.6331 12.3465 44.6331 12.3998C44.1718 12.2133 44.1717 12.1866 44.3255 11.9201C44.4281 11.7869 44.3768 11.6803 44.0692 11.6803C43.5053 11.7069 42.9415 11.5737 42.4288 11.6803C42.275 11.7069 42.0188 11.7069 41.9675 11.627C41.7112 11.3072 41.4036 11.547 41.2498 11.627C40.891 11.8668 40.7885 11.7069 40.7372 11.547C40.6859 11.4138 40.6347 11.2806 40.3271 11.2539C40.1733 11.3072 40.2246 11.3871 40.1733 11.4404C40.0195 11.6803 39.917 11.9734 39.3019 11.6803C39.1481 11.6003 38.9943 11.6536 38.8405 11.7336C38.1741 12.0267 37.5077 11.9734 36.7388 11.8402C36.2774 11.7602 35.7648 11.627 35.2522 11.8135C35.0471 11.8935 34.7908 11.8402 34.637 11.7069C34.5345 11.627 34.4833 11.5204 34.2269 11.4937C34.2269 11.5204 34.1757 11.5737 34.2269 11.6003C34.2782 11.7069 34.5345 11.8402 34.2782 11.8935C34.0732 11.9468 33.8168 11.8402 33.7143 11.7336C33.5605 11.5737 33.5093 11.6003 33.253 11.6803C33.0479 11.7602 32.6378 11.8935 32.484 11.7336C32.3303 11.5737 32.3302 11.3072 32.7916 11.2006C32.9967 11.1473 33.458 11.174 33.3555 10.9608C33.3042 10.7742 32.9454 10.7209 32.6378 10.6676C32.1765 10.5877 31.7664 10.561 31.4075 10.7476C31.0487 10.9341 30.5361 10.8275 30.126 10.8009C29.3058 10.8009 28.5369 10.8275 27.7167 10.8275C27.4604 10.8275 27.1528 10.8275 26.9477 10.8275C26.2301 10.8542 25.4612 10.8542 24.7948 11.0141C24.6922 11.0407 24.641 11.094 24.6922 11.1473C24.7435 11.2273 24.8973 11.2806 25.0511 11.2806C25.7687 11.2273 26.5377 11.3871 27.2553 11.174C27.7679 11.0407 28.3831 11.174 28.947 11.1473C29.2033 11.1473 29.3571 11.3072 29.4596 11.4138C29.5621 11.4671 29.5621 11.547 29.4083 11.5737C29.2545 11.6003 29.152 11.6003 29.1008 11.5204C28.947 11.3072 28.7932 11.2806 28.5369 11.4671C28.4856 11.4937 28.3318 11.5204 28.3318 11.4937C27.7679 11.3072 27.5629 11.4937 27.2553 11.6803C26.6914 12.0001 26.794 11.547 26.4864 11.4671C26.3326 11.6536 26.1788 11.8402 25.8712 11.9468C25.7687 12.0001 25.6149 12.0534 25.4612 12.0267C25.3586 12.0001 25.3074 11.9468 25.3586 11.9201C25.5124 11.6536 25.3586 11.627 24.9485 11.7336C24.846 11.7602 24.7435 11.7336 24.6922 11.6536C24.9998 11.3605 24.5384 10.9075 23.9233 10.9608C23.2569 11.0141 22.4367 10.9341 22.0266 11.4138C21.8728 11.5737 21.4115 11.6803 21.3602 11.9468C21.3602 12.0534 21.1552 12.16 20.8988 12.1333C20.54 12.0534 20.8988 12.0001 20.9501 11.9201C21.0014 11.7869 20.8476 11.7869 20.6425 11.7602C20.4375 11.7602 20.335 11.6803 20.2837 11.6003C20.2324 11.5204 20.335 11.4404 20.54 11.4404C20.7451 11.4138 20.9501 11.4404 20.9501 11.2806C20.9501 11.2006 20.8476 11.1473 20.6938 11.1473C20.4375 11.1473 20.1299 11.094 19.9761 11.2273C19.9249 11.3339 19.9761 11.4138 19.6686 11.3605C19.4635 11.3338 19.4635 11.4404 19.4635 11.5204C19.4635 11.6536 19.4635 11.7869 19.7711 11.8135C19.9761 11.8402 20.2324 11.8668 20.1299 12.0001C20.0274 12.16 19.6173 12.16 19.361 12.2399C19.2072 12.2932 19.0021 12.2399 18.9509 12.1333C18.8996 11.9734 18.6433 11.8402 18.7458 11.6803C18.7971 11.5737 18.7458 11.5204 18.5408 11.4937C18.4383 11.4671 18.2845 11.4404 18.182 11.5204C18.0794 11.6003 18.2332 11.6803 18.2845 11.7336C18.3357 11.8135 18.387 11.8668 18.4895 11.9468C18.5408 12.0267 18.4895 12.1333 18.3358 12.08C18.0282 11.9468 17.5668 12.08 17.3105 11.8668C17.208 11.7602 17.1055 11.7869 16.9517 11.8668C16.8491 11.9201 16.6441 11.9734 16.9004 12.0267C17.0029 12.0534 17.1055 12.08 17.0029 12.16C16.9517 12.1866 16.7979 12.2133 16.7466 12.1866C16.234 11.9201 15.6701 12.16 15.1575 12.16C14.7474 12.16 14.286 11.9734 13.8247 12.2133C13.7222 12.2666 13.1583 12.08 12.8507 11.9734C12.7482 11.9468 12.7995 11.8135 13.0045 11.7869H13.0558C14.0297 12.08 14.3373 11.627 14.8499 11.3072C14.9012 11.6536 15.4138 11.7069 15.8239 11.8402C16.1315 11.9468 16.3365 11.7602 16.5928 11.6803C16.6954 11.627 16.7466 11.5204 16.6954 11.5204C16.2853 11.547 16.1828 11.2806 15.7727 11.3072C15.0037 11.3339 14.2348 11.174 13.6196 11.547C13.4659 11.627 13.3121 11.5737 13.1583 11.5204C12.8507 11.3871 12.3894 11.3872 12.1331 11.4671C11.6204 11.6536 11.1078 11.6536 10.5439 11.6003C9.82627 11.5204 9.15986 11.627 8.44219 11.6536C8.18588 11.6536 7.77579 11.7602 7.92957 11.4404C7.98083 11.3605 7.82705 11.3072 7.67326 11.2539C7.46822 11.2006 7.3657 11.1207 7.31444 11.0407C7.10939 10.8009 7.3657 10.4011 6.54551 10.3745C6.64803 9.97475 5.87911 10.028 5.52027 9.8948C5.00765 9.70825 4.80261 9.57501 5.05892 9.25522C5.16144 9.12197 5.26396 8.98873 5.26396 8.82883C5.26396 8.69559 5.16143 8.61564 4.90512 8.58899C4.3925 8.50904 3.98242 8.3758 4.03368 8.00271C4.08494 7.78952 3.7261 7.76287 3.36727 7.78952C3.16222 7.78952 2.85465 7.81617 2.85465 7.68292C2.85465 7.52303 3.16222 7.52303 3.41853 7.54967C3.62358 7.54967 3.87988 7.62962 3.82862 7.46973C3.82862 7.30983 3.46979 7.33648 3.316 7.36313C2.80338 7.41643 2.34204 7.60297 1.72689 7.57632C1.52185 7.57632 1.21427 7.54967 1.31679 7.44308C1.72688 7.14994 0.906694 6.99004 1.06048 6.7502C1.11174 6.67025 0.906703 6.59031 0.701656 6.59031C0.445346 6.59031 0.496602 6.48371 0.599126 6.43041C1.06048 6.16392 0.650391 5.92408 0.394081 5.73753C0.189033 5.60429 0.189033 5.55099 0.394081 5.44439C0.752914 5.2845 1.06048 5.1246 0.752905 4.80481C0.599119 4.64492 1.11174 4.48502 1.26552 4.32513C1.31679 4.27183 1.41931 4.27183 1.31679 4.16523C1.06048 3.95204 0.701643 3.7655 1.00921 3.47236C1.00921 3.44571 1.00923 3.39241 0.957965 3.39241C0.189036 3.20587 0.547864 2.72618 0.0865065 2.45969C-0.0672793 2.37974 -0.0160236 2.27315 0.240286 2.27315C1.21426 2.21985 1.93194 1.84676 2.90591 1.79346C3.7261 1.74016 4.54629 1.71351 5.36648 1.82011C5.62279 1.84676 5.87911 1.87341 6.08416 1.76681C6.2892 1.68686 6.59677 1.66022 6.69929 1.68687C7.46822 2.00665 8.23714 1.63357 8.95481 1.71351C10.1338 1.82011 11.3129 1.76681 12.4406 1.71351C13.9785 1.63357 15.5163 1.63357 17.0542 1.60692C18.1307 1.58027 19.2585 1.50032 20.335 1.47367C21.9753 1.39372 23.5645 1.26048 25.2048 1.23383C27.6142 1.18053 29.9722 1.07394 32.3815 0.993988C33.6631 0.94069 34.9446 0.860743 36.2262 0.860743C37.764 0.860743 39.3019 0.727497 40.891 0.754146C42.07 0.754146 43.3003 0.647549 44.4793 0.6209C45.6071 0.594251 46.7348 0.567601 47.9139 0.540952C48.8878 0.514303 49.9131 0.514302 50.8871 0.434355C51.4509 0.381057 51.9636 0.434355 52.4762 0.434355C53.4502 0.407706 54.4241 0.221162 55.3468 0.301109C56.8334 0.461004 58.32 0.141214 59.8066 0.301109C60.0629 0.327758 60.3193 0.30111 60.5756 0.27446C61.6008 0.0346183 62.6773 0.221163 63.7025 0.247812C63.9588 0.247812 64.1639 0.301111 64.4715 0.194514C64.7278 0.114567 65.1379 0.0346191 65.3942 0.0879173C65.9581 0.194514 66.5219 0.0346187 67.0346 0.114566C67.906 0.247812 68.8287 -0.0186804 69.7002 0.167864C69.8027 0.194513 69.9052 0.141215 70.0078 0.114566C70.5204 -0.0453287 71.0842 0.00796872 71.6481 0.0346179C72.2633 0.0879161 72.8272 0.27446 73.4936 0.0346179C73.7499 -0.0453295 74.2625 0.0346195 74.6213 0.0612686C75.7491 0.114567 76.8256 0.194513 77.9534 0.0346179C78.2609 -0.0186804 78.5172 0.0879169 78.8248 0.114566C79.1836 0.141215 79.5937 0.381057 79.9526 0.114566C79.9526 0.114566 80.0551 0.114566 80.1063 0.141215C80.8753 0.354408 81.6955 0.247813 82.4644 0.194514C83.2846 0.141216 84.1048 0.301109 84.925 0.301109C85.8989 0.27446 86.8729 0.381057 87.7956 0.407706C88.5133 0.434355 89.2822 0.327759 89.9486 0.514303C90.2562 0.594251 90.5638 0.514303 90.8201 0.514303C91.8453 0.487654 92.8706 0.594251 93.8958 0.647549C95.2286 0.727496 96.5614 0.647549 97.8942 0.780794C98.4581 0.834093 99.022 0.88739 99.4834 1.10058C99.5859 1.15388 99.6884 1.18053 99.8422 1.15388C100.662 1.02064 101.534 1.12723 102.303 1.15388C103.379 1.20718 104.507 1.23383 105.584 1.26048C106.045 1.26048 106.301 1.44702 106.301 1.66022C106.352 2.0866 106.352 2.48634 106.968 2.83278C107.07 2.88608 107.121 3.01932 107.07 3.09927C106.916 3.36576 107.121 3.6056 107.378 3.8188C107.685 4.08529 107.429 4.21853 107.019 4.32513C105.891 4.61827 104.712 4.69822 103.431 4.56497C102.149 4.43173 100.867 4.45838 99.5859 4.45838C99.0732 4.45838 98.7144 4.59162 98.8682 4.91141C99.022 5.2312 98.8682 5.57764 99.5346 5.81748C99.7397 5.89743 99.5346 6.08397 99.4834 6.19057C99.3808 6.37711 99.4321 6.48371 99.8422 6.56366C100.56 6.72355 101.226 6.96339 102.098 6.8568C102.405 6.83015 102.61 6.8568 102.405 7.09664C102.149 7.30983 102.662 7.44308 102.867 7.49638C103.482 7.62962 103.225 7.76287 102.969 7.92276C102.61 8.13596 102.662 8.3225 103.123 8.40245C103.482 8.45574 103.379 8.58899 103.174 8.64229C102.508 8.77553 102.662 8.90878 103.072 9.09532C103.123 9.12197 103.123 9.22857 103.123 9.28187C103.123 9.33517 103.174 9.41511 103.277 9.41511C103.892 9.33517 103.994 9.70825 104.302 9.76155C104.917 9.86815 105.327 10.1346 105.84 10.2679C106.352 10.4278 106.404 10.4011 106.455 10.028C106.404 10.028 106.352 10.0014 106.352 10.0014C106.199 10.028 106.045 10.2146 105.84 10.0547C105.686 9.9481 105.84 9.86815 105.994 9.8415C106.25 9.76155 106.506 9.76155 106.763 9.8948C106.916 10.0014 106.763 10.108 106.814 10.2146C107.121 10.2679 107.121 10.0547 107.378 10.0813C107.531 10.2146 107.429 10.3745 107.326 10.5077C107.224 10.641 107.121 10.7209 107.326 10.8542C107.378 10.8808 107.429 10.9341 107.429 10.9341C106.763 11.2806 107.634 11.3339 107.839 11.4937C107.89 11.5204 107.993 11.547 107.993 11.6003C108.095 11.8402 107.07 12.693 106.711 12.6663C106.25 12.613 105.737 12.7996 105.276 12.5864C104.968 12.4265 104.456 12.4531 104.097 12.5597C103.379 12.7996 102.918 12.613 102.508 12.3732C102.457 12.3465 102.405 12.3465 102.354 12.3199C102.405 12.7463 102.405 12.7463 101.329 12.7729C101.739 12.5064 101.636 12.4265 100.97 12.3199C100.304 12.2133 99.7397 12.2666 99.1758 12.4265C99.022 12.4798 98.9195 12.4798 98.8169 12.3998C98.4581 12.16 97.9455 12.2133 97.4841 12.2133C97.2791 12.2133 97.1253 12.2133 96.9203 12.16C96.7152 12.08 96.4589 11.8668 96.3564 11.9734C96.2538 12.1333 95.5874 12.1866 95.9975 12.4531C96.0488 12.4798 95.69 12.693 95.4337 12.7729C95.2799 12.8262 95.2286 12.693 95.1773 12.613C95.1261 12.4531 94.9723 12.3732 94.716 12.3199C94.6647 12.3199 94.5109 12.3465 94.4597 12.3998C94.2546 12.5864 94.6647 12.613 94.7673 12.7463C94.5109 12.8262 94.3571 12.7729 94.2034 12.693C93.4857 12.3465 92.8193 12.08 91.7428 12.2932C91.5378 12.3199 91.1277 12.08 90.8201 11.9468C90.7176 12.0534 90.8713 12.16 90.8713 12.2666C90.9739 12.6397 90.41 12.8795 89.7436 12.7463C89.436 12.693 89.231 12.7996 88.9747 12.8262C88.6158 12.8529 88.3083 12.8529 88.3595 12.5864C88.3595 12.4798 88.462 12.3465 88.1545 12.3732C87.8982 12.3998 87.4881 12.3465 87.5393 12.613C87.5393 12.693 87.6931 12.8529 87.3343 12.7996C87.1805 12.7729 86.8216 12.693 87.0267 12.5597C87.4881 12.2666 87.1292 12.1333 86.6679 12.0001C86.5141 11.9468 86.4116 11.8135 86.1553 11.8135C86.0015 11.8668 86.0527 11.9468 86.1553 11.9468C86.7704 12.16 86.5654 12.4531 86.4628 12.693C86.3603 12.9861 85.899 12.8795 85.5401 12.8795C85.13 12.8795 85.2838 12.7729 85.3863 12.6397C85.4889 12.5064 85.3351 12.3199 85.4888 12.1866C85.4888 12.16 85.4888 12.1333 85.4888 12.1333C85.4376 12.0001 84.156 11.6536 83.8997 11.7069C83.7972 11.7336 83.7459 11.7602 83.6947 11.8135C83.4896 12.0267 83.2333 12.0001 83.0283 11.8402C82.772 11.627 82.4131 11.5737 82.003 11.627C81.8493 11.6536 81.6442 11.6536 81.4904 11.627C81.2854 11.6003 81.0803 11.5737 81.1316 11.7602C81.1316 11.8402 81.1316 11.9468 80.9265 11.9201C80.7215 11.9201 80.7215 11.8135 80.7215 11.7336C80.7215 11.6803 80.6702 11.6003 80.6189 11.5737C80.4139 11.4937 80.2601 11.1207 79.85 11.5204C79.6962 11.6536 79.2862 11.7069 79.1324 11.8935C79.0811 11.9734 78.9273 11.8935 78.8248 11.8668C78.7223 11.8135 78.5685 11.7869 78.7735 11.6803C78.9786 11.5737 79.1324 11.4138 79.0811 11.174C78.8248 11.4404 78.3122 11.4138 78.0046 11.6003C77.7996 11.7336 77.492 11.6536 77.2357 11.627C77.0819 11.6003 76.9281 11.5737 76.8256 11.6803C76.7743 11.7069 76.7743 11.7602 76.8256 11.8135C76.9281 11.8935 77.0819 11.8668 77.2357 11.8402C77.9533 11.6536 78.2097 12.08 78.7223 12.16C78.466 12.4531 78.9786 12.6663 79.0811 12.9061C79.1836 13.066 78.8248 12.9328 78.7223 13.0127C78.5685 13.0927 78.4147 13.0927 78.4147 12.9861C78.4147 12.8262 78.1584 12.7196 78.0559 12.5864C78.0046 12.5064 77.9533 12.4531 77.7996 12.4798C77.6458 12.5064 77.6458 12.5597 77.6458 12.6397C77.697 12.7463 77.5433 12.8262 77.6971 12.9328C77.8508 13.0394 77.7483 13.0927 77.5432 13.1193C77.3382 13.1193 77.2357 13.066 77.2357 12.9594C77.2357 12.9061 77.2869 12.8529 77.2869 12.7996C77.2357 12.613 77.1844 12.4798 76.6718 12.5064C76.1079 12.5597 75.6978 12.3998 75.4415 12.1333C75.7491 12.2133 76.0054 12.1866 76.1592 12.0534C76.313 11.9201 76.4155 11.8135 76.2104 11.6536C76.0054 11.4937 75.9541 11.2806 75.9541 11.0674C75.9541 10.9608 75.9541 10.8542 75.6978 10.8009C75.544 11.174 75.0827 11.5204 75.6978 11.8668C75.2877 11.8668 75.1339 11.7869 74.9801 11.5204C74.8776 11.4138 75.1339 11.2273 74.8264 11.2006C74.5701 11.174 74.16 11.2006 73.9549 11.2806C73.6986 11.4138 73.1347 11.3072 73.0322 11.6003C72.9809 11.7336 72.7246 11.5737 72.5709 11.5204C72.3146 11.4138 72.1608 11.3605 71.9557 11.5737C71.8532 11.7069 71.4431 11.7869 71.1355 11.8935C70.9817 11.7602 71.3406 11.7069 71.1868 11.6003C71.033 11.5204 70.8792 11.6003 70.7254 11.627C70.3153 11.6803 69.9565 11.547 69.5464 11.5737C69.9565 11.5204 69.7002 11.3072 69.9565 11.2006C70.0077 11.174 69.9052 11.0674 69.8027 11.0407C69.6489 10.9874 69.5977 11.0674 69.4951 11.1207C69.0338 11.4138 68.3161 11.5204 67.701 11.3605C67.4447 11.3072 67.3421 11.3871 67.1884 11.4138C66.9321 11.4671 66.6245 11.4937 66.3169 11.547C66.1118 11.5737 65.8555 11.627 65.9068 11.7069C65.7018 12.16 65.0353 12.2666 64.574 12.4265ZM63.0874 6.32381C62.9849 6.24387 62.8311 6.21722 62.6773 6.24387C62.0109 6.29716 61.3445 6.21722 60.6781 6.24387C60.1142 6.27052 59.5503 6.11062 59.089 6.13727C57.9099 6.19057 56.7822 6.11062 55.6031 6.11062C54.8855 6.13727 54.2191 5.97737 53.5014 6.03067C52.9375 6.08397 52.3737 6.08397 51.8098 6.08397C49.9131 6.11062 47.9651 6.03067 46.0684 6.00402C45.402 6.00402 44.6844 6.08397 44.018 6.05732C42.8902 6.00403 41.7624 6.08397 40.5834 6.08397C39.9683 6.08397 39.4044 6.00402 38.7892 6.03067C37.0976 6.11062 35.4572 6.16392 33.7656 6.16392C32.6378 6.16392 31.5613 6.05732 30.4336 6.11062C28.3318 6.21722 26.2301 6.21722 24.1283 6.24387C23.7695 6.24387 23.3594 6.24387 23.0518 6.32381C22.2829 6.45706 21.514 6.43041 20.7451 6.45706C20.1299 6.45706 19.4635 6.43041 18.8484 6.48371C18.0794 6.56366 17.2592 6.59031 16.4391 6.61696C15.8239 6.6436 15.1575 6.6436 14.5424 6.6969C13.5171 6.77685 12.4919 7.06999 11.4154 6.8568C11.3129 6.83015 11.1078 6.88345 11.0053 6.9101C10.0826 7.12329 9.10861 6.99004 8.13463 7.06999C8.03211 7.06999 7.92958 7.06999 7.87832 7.04334C7.51949 6.83015 7.16066 6.99004 6.85309 7.06999C6.64804 7.12329 6.44298 7.17659 6.49425 7.30983C6.54551 7.44308 6.75055 7.49638 6.9556 7.49638C7.57074 7.46973 8.33968 7.76287 8.8523 7.36313C8.8523 7.33648 8.95481 7.33648 8.95481 7.33648C9.67248 7.30983 10.3902 7.28318 11.1078 7.25653C11.7742 7.20324 12.3894 7.49638 13.107 7.30983C13.1583 7.30983 13.2096 7.33648 13.3121 7.33648C13.6196 7.38978 13.9272 7.33648 14.2861 7.30983C15.6189 7.22988 16.9004 6.96339 18.2332 7.25653C18.4383 7.30983 18.5408 7.22988 18.6946 7.20324C19.361 7.06999 19.7198 7.12329 20.1812 7.46973C20.2837 7.01669 20.8476 7.12329 21.3602 7.12329C21.719 7.12329 22.0779 7.06999 22.4367 7.04334C23.4107 6.93674 24.3846 6.88345 25.3586 7.20324C25.0511 6.77685 25.7687 7.06999 25.9225 6.88345C25.9738 7.06999 25.5124 7.09664 25.7687 7.22988C25.9738 7.33648 26.1788 7.22988 26.4351 7.20324C26.8965 7.12329 27.3578 6.88345 27.8192 7.20324C27.8705 7.25653 28.0755 7.25653 28.1268 7.22988C28.2293 6.99004 28.3831 6.8568 28.8444 7.09664C28.8957 7.12329 28.9982 7.04334 29.0495 6.99004C29.152 6.9101 29.3058 6.8568 29.5108 6.88345C30.5361 6.96339 31.5101 6.88345 32.484 6.8035C32.7404 6.77685 32.9967 6.77685 33.253 6.77685C33.1504 6.99004 32.5353 6.91009 32.6891 7.22988C32.9967 6.96339 33.5093 7.04334 33.9706 6.99004C35.0984 6.83015 36.1749 6.61695 37.4052 6.6969C37.9691 6.72355 38.5329 6.56366 39.0968 6.7502C39.1481 6.77685 39.2506 6.7502 39.3019 6.72355C40.1733 6.51036 41.096 6.6969 41.9675 6.59031C42.07 6.56366 42.2238 6.56366 42.2751 6.59031C42.6339 6.7502 42.9415 6.72355 43.4541 6.67025C44.1717 6.59031 44.992 6.51036 45.8121 6.59031C46.1197 6.61696 46.376 6.7502 46.6836 6.7502C46.9912 6.7502 47.7601 6.6969 47.9651 6.7502C48.1189 6.77685 48.2727 6.8035 48.2215 6.67025C48.2215 6.56366 48.3752 6.56366 48.4778 6.59031C48.7341 6.6436 48.9904 6.56366 49.2467 6.56366C49.7593 6.53701 50.3232 6.48371 50.8358 6.56366C50.9383 6.5903 51.1434 6.53701 51.0409 6.67025C50.9896 6.77685 50.9896 6.83015 51.1946 6.83015C51.3484 6.83015 51.4509 6.83015 51.5022 6.7502C51.7072 6.51036 52.1173 6.48371 52.5274 6.51036C53.6039 6.59031 54.7317 6.61695 55.8082 6.53701C55.9107 6.53701 56.0645 6.56366 56.1671 6.59031C56.2696 6.6436 56.3721 6.6436 56.4746 6.59031C57.2435 6.29717 58.0637 6.59031 58.8839 6.51036C59.1915 6.48371 59.5503 6.61695 59.8579 6.48371C60.0117 6.43041 60.2167 6.45706 60.4218 6.51036C61.2932 6.59031 62.2672 6.6969 63.0874 6.32381ZM78.8248 10.0813C79.1324 10.2945 79.4912 10.3478 79.7988 10.2412C80.2601 10.0547 80.7215 9.92145 81.2854 10.0813C81.4392 10.1346 81.5929 10.0813 81.6442 9.97475C81.6955 9.86815 81.6442 9.7882 81.3879 9.7882C81.1316 9.7882 80.8753 9.7882 80.6189 9.76155C80.3114 9.7349 80.0551 9.70825 79.9526 9.92145C79.9013 10.028 79.6963 10.0813 79.4912 9.9481C79.0299 9.7349 78.3634 9.6816 77.8508 9.7349C77.2357 9.7882 76.6205 10.0547 75.9541 9.7882C75.8516 9.76155 75.7491 9.7882 75.6466 9.7882C74.6213 9.7349 73.5961 9.97475 72.5196 9.7882C72.3658 9.76155 72.1607 9.76155 72.1607 9.86815C72.1095 9.9481 72.2633 10.0547 72.3658 10.0547C73.0322 10.108 73.186 10.3212 72.9809 10.6676C73.4423 10.2945 74.365 10.1613 74.7238 10.3478C75.2365 10.641 76.0054 10.1613 76.2617 10.561C76.313 10.5344 76.4155 10.5077 76.4668 10.4811C76.6205 10.4278 76.7743 10.3478 76.9281 10.2945C77.287 10.1879 77.697 10.0547 78.0559 10.2146C78.6197 10.4544 78.7223 10.3478 78.8248 10.0813ZM50.0156 10.0547C49.7593 10.0547 49.5543 10.028 49.2979 10.028C49.0929 10.028 48.8879 10.0813 48.8879 10.1879C48.8879 10.3745 49.1442 10.5344 49.4005 10.641C49.6568 10.7476 49.8106 10.5877 50.0156 10.5344C50.682 10.3212 51.861 10.4278 52.1686 10.7742C52.2199 10.8542 52.2199 10.9874 52.4762 10.9341C52.6812 10.9075 52.6812 10.7742 52.63 10.6943C52.5274 10.5077 52.63 10.5077 52.9888 10.4811C53.604 10.4278 54.2704 10.5344 54.8855 10.3478C55.0393 10.2945 55.2956 10.3478 55.2443 10.2146C55.2443 10.0813 54.988 10.028 54.8342 10.0813C54.3729 10.1613 54.014 10.0547 53.7065 9.9481C53.3989 9.86815 53.1426 9.86815 52.8863 9.92145C51.9636 10.1613 50.9896 10.0014 50.0156 10.0547ZM58.3713 10.7476C58.5764 10.6943 58.7814 10.641 58.9352 10.5877C59.5503 10.3745 60.9857 10.2945 61.7033 10.4278C62.1134 10.5077 62.626 10.4811 62.9849 10.3745C63.395 10.2679 62.7286 10.2146 62.7798 10.0813C62.7798 10.028 63.0874 9.86815 62.7286 9.86815C61.8571 9.8948 60.9344 9.76155 60.0629 9.97475C59.9092 10.028 59.6528 10.108 59.6016 9.9481C59.5503 9.62831 59.1402 9.76155 58.8839 9.7882C58.5251 9.8415 58.6276 10.0014 58.7814 10.1346C59.0377 10.3478 58.9352 10.4811 58.5251 10.561C58.4226 10.5877 58.3713 10.641 58.3713 10.7476ZM72.0582 10.2146C71.7507 10.1879 71.5456 10.0813 71.3918 10.0547C70.8792 9.97475 70.3666 9.7882 69.854 9.8948C69.2901 10.0014 68.7775 10.0014 68.3161 9.8415C68.0598 9.76155 67.9573 9.86815 67.8035 9.92145C67.6497 10.0014 67.6497 10.108 67.8035 10.1613C68.0598 10.2412 68.2649 10.3745 68.6237 10.3212C69.3926 10.2146 70.1615 10.2679 70.8792 10.3745C71.2893 10.4011 71.6481 10.3745 72.0582 10.2146ZM34.7396 10.5877C34.4833 10.561 34.1757 10.641 34.0219 10.7476C33.9194 10.8542 34.1757 10.9341 34.3295 11.0141C34.4832 11.094 34.637 11.094 34.7908 11.0141C34.9446 10.9341 35.0984 10.8808 35.3547 10.9075C36.1236 10.9608 36.8413 10.8009 37.6102 10.7476C37.764 10.7476 37.8665 10.6943 37.8665 10.6143C37.8665 10.5077 37.764 10.5077 37.6102 10.5077C37.3539 10.4811 37.0463 10.4544 36.79 10.5344C36.2262 10.6943 35.4572 10.2945 34.9446 10.6676C34.9959 10.641 34.8421 10.6143 34.7396 10.5877ZM56.5259 10.4011C56.6796 10.4278 56.8847 10.4278 56.936 10.3478C57.1923 9.8948 57.4486 10.2679 57.7049 10.3478C57.8587 10.3745 57.91 10.5344 58.115 10.4544C58.4226 10.3478 58.32 10.2146 58.2688 10.0547C58.2175 9.92145 58.0637 9.8415 57.9099 9.86815C57.4486 9.97475 56.936 9.92145 56.4746 10.0014C56.2696 10.028 56.0132 10.0813 56.0132 10.2146C56.0132 10.3478 56.3208 10.3745 56.5259 10.4011Z" fill="#229E57"/>
</svg>
