<svg width="991" height="499" viewBox="0 0 991 499" fill="none" xmlns="http://www.w3.org/2000/svg">
<path d="M497.438 444H501.305C504.656 444 506.625 441.914 506.625 438.367V438.352C506.625 434.812 504.648 432.727 501.305 432.727H497.438V444ZM498.844 442.734V433.992H501.211C503.711 433.992 505.188 435.617 505.188 438.367V438.383C505.188 441.125 503.727 442.734 501.211 442.734H498.844ZM512.352 444.148C514.75 444.148 516.234 442.492 516.234 439.797V439.781C516.234 437.078 514.75 435.43 512.352 435.43C509.953 435.43 508.469 437.078 508.469 439.781V439.797C508.469 442.492 509.953 444.148 512.352 444.148ZM512.352 442.945C510.758 442.945 509.859 441.781 509.859 439.797V439.781C509.859 437.789 510.758 436.633 512.352 436.633C513.945 436.633 514.844 437.789 514.844 439.781V439.797C514.844 441.781 513.945 442.945 512.352 442.945ZM522.844 444H524.203V439.016C524.203 437.539 525.055 436.633 526.398 436.633C527.742 436.633 528.367 437.359 528.367 438.875V444H529.727V438.547C529.727 436.547 528.672 435.43 526.781 435.43C525.539 435.43 524.75 435.953 524.328 436.844H524.203V435.578H522.844V444ZM535.648 444.148C538.047 444.148 539.531 442.492 539.531 439.797V439.781C539.531 437.078 538.047 435.43 535.648 435.43C533.25 435.43 531.766 437.078 531.766 439.781V439.797C531.766 442.492 533.25 444.148 535.648 444.148ZM535.648 442.945C534.055 442.945 533.156 441.781 533.156 439.797V439.781C533.156 437.789 534.055 436.633 535.648 436.633C537.242 436.633 538.141 437.789 538.141 439.781V439.797C538.141 441.781 537.242 442.945 535.648 442.945ZM544.633 444.062C544.898 444.062 545.156 444.031 545.422 443.984V442.828C545.172 442.852 545.039 442.859 544.797 442.859C543.922 442.859 543.578 442.461 543.578 441.469V436.703H545.422V435.578H543.578V433.398H542.172V435.578H540.844V436.703H542.172V441.812C542.172 443.422 542.898 444.062 544.633 444.062ZM551.953 444H553.312V438.781C553.312 437.547 554.234 436.727 555.531 436.727C555.828 436.727 556.086 436.758 556.367 436.805V435.484C556.234 435.461 555.945 435.43 555.688 435.43C554.547 435.43 553.758 435.945 553.438 436.828H553.312V435.578H551.953V444ZM561.25 444.148C563.234 444.148 564.438 443.023 564.727 441.883L564.742 441.82H563.383L563.352 441.891C563.125 442.398 562.422 442.938 561.281 442.938C559.781 442.938 558.82 441.922 558.781 440.18H564.844V439.648C564.844 437.133 563.453 435.43 561.164 435.43C558.875 435.43 557.391 437.211 557.391 439.812V439.82C557.391 442.461 558.844 444.148 561.25 444.148ZM561.156 436.641C562.398 436.641 563.32 437.43 563.461 439.094H558.805C558.953 437.492 559.906 436.641 561.156 436.641ZM566.953 446.812H568.312V442.672H568.438C568.898 443.57 569.906 444.148 571.062 444.148C573.203 444.148 574.594 442.438 574.594 439.797V439.781C574.594 437.156 573.195 435.43 571.062 435.43C569.891 435.43 568.953 435.984 568.438 436.922H568.312V435.578H566.953V446.812ZM570.75 442.945C569.219 442.945 568.281 441.742 568.281 439.797V439.781C568.281 437.836 569.219 436.633 570.75 436.633C572.289 436.633 573.203 437.82 573.203 439.781V439.797C573.203 441.758 572.289 442.945 570.75 442.945ZM576.797 444H578.156V432.234H576.797V444ZM581.484 446.953C582.977 446.953 583.672 446.406 584.367 444.516L587.656 435.578H586.227L583.922 442.508H583.797L581.484 435.578H580.031L583.148 444.008L582.992 444.508C582.688 445.477 582.219 445.828 581.445 445.828C581.258 445.828 581.047 445.82 580.883 445.789V446.906C581.07 446.938 581.305 446.953 581.484 446.953ZM596.945 444.062C597.211 444.062 597.469 444.031 597.734 443.984V442.828C597.484 442.852 597.352 442.859 597.109 442.859C596.234 442.859 595.891 442.461 595.891 441.469V436.703H597.734V435.578H595.891V433.398H594.484V435.578H593.156V436.703H594.484V441.812C594.484 443.422 595.211 444.062 596.945 444.062ZM603.102 444.148C605.5 444.148 606.984 442.492 606.984 439.797V439.781C606.984 437.078 605.5 435.43 603.102 435.43C600.703 435.43 599.219 437.078 599.219 439.781V439.797C599.219 442.492 600.703 444.148 603.102 444.148ZM603.102 442.945C601.508 442.945 600.609 441.781 600.609 439.797V439.781C600.609 437.789 601.508 436.633 603.102 436.633C604.695 436.633 605.594 437.789 605.594 439.781V439.797C605.594 441.781 604.695 442.945 603.102 442.945ZM616.586 444.062C616.852 444.062 617.109 444.031 617.375 443.984V442.828C617.125 442.852 616.992 442.859 616.75 442.859C615.875 442.859 615.531 442.461 615.531 441.469V436.703H617.375V435.578H615.531V433.398H614.125V435.578H612.797V436.703H614.125V441.812C614.125 443.422 614.852 444.062 616.586 444.062ZM619.484 444H620.844V439.016C620.844 437.539 621.695 436.633 623.039 436.633C624.383 436.633 625.008 437.359 625.008 438.875V444H626.367V438.547C626.367 436.547 625.312 435.43 623.422 435.43C622.18 435.43 621.391 435.953 620.969 436.844H620.844V432.234H619.484V444ZM629.547 433.953C630.062 433.953 630.484 433.531 630.484 433.016C630.484 432.5 630.062 432.078 629.547 432.078C629.031 432.078 628.609 432.5 628.609 433.016C628.609 433.531 629.031 433.953 629.547 433.953ZM628.859 444H630.219V435.578H628.859V444ZM635.672 444.148C637.586 444.148 639.047 443.109 639.047 441.609V441.594C639.047 440.391 638.281 439.703 636.695 439.32L635.398 439.008C634.406 438.766 633.984 438.406 633.984 437.836V437.82C633.984 437.078 634.719 436.562 635.719 436.562C636.734 436.562 637.391 437.023 637.57 437.688H638.906C638.719 436.312 637.492 435.43 635.727 435.43C633.938 435.43 632.594 436.484 632.594 437.883V437.891C632.594 439.102 633.305 439.789 634.883 440.164L636.188 440.477C637.227 440.727 637.656 441.125 637.656 441.695V441.711C637.656 442.477 636.852 443.016 635.719 443.016C634.641 443.016 633.969 442.555 633.742 441.852H632.352C632.508 443.242 633.797 444.148 635.672 444.148ZM649.094 444.148C651.078 444.148 652.281 443.023 652.57 441.883L652.586 441.82H651.227L651.195 441.891C650.969 442.398 650.266 442.938 649.125 442.938C647.625 442.938 646.664 441.922 646.625 440.18H652.688V439.648C652.688 437.133 651.297 435.43 649.008 435.43C646.719 435.43 645.234 437.211 645.234 439.812V439.82C645.234 442.461 646.688 444.148 649.094 444.148ZM649 436.641C650.242 436.641 651.164 437.43 651.305 439.094H646.648C646.797 437.492 647.75 436.641 649 436.641ZM654.797 444H656.156V438.781C656.156 437.594 656.992 436.633 658.094 436.633C659.156 436.633 659.844 437.281 659.844 438.281V444H661.203V438.586C661.203 437.516 661.977 436.633 663.148 436.633C664.336 436.633 664.906 437.25 664.906 438.492V444H666.266V438.18C666.266 436.414 665.305 435.43 663.586 435.43C662.422 435.43 661.461 436.016 661.008 436.906H660.883C660.492 436.031 659.695 435.43 658.555 435.43C657.453 435.43 656.656 435.953 656.281 436.859H656.156V435.578H654.797V444ZM671.031 444.148C672.164 444.148 673.047 443.656 673.578 442.758H673.703V444H675.062V438.234C675.062 436.484 673.914 435.43 671.859 435.43C670.062 435.43 668.781 436.32 668.562 437.641L668.555 437.688H669.914L669.922 437.664C670.141 437.008 670.805 436.633 671.812 436.633C673.07 436.633 673.703 437.195 673.703 438.234V439L671.289 439.148C669.328 439.266 668.219 440.133 668.219 441.633V441.648C668.219 443.18 669.43 444.148 671.031 444.148ZM669.609 441.617V441.602C669.609 440.766 670.172 440.312 671.453 440.234L673.703 440.094V440.859C673.703 442.062 672.695 442.969 671.312 442.969C670.336 442.969 669.609 442.469 669.609 441.617ZM678.266 433.953C678.781 433.953 679.203 433.531 679.203 433.016C679.203 432.5 678.781 432.078 678.266 432.078C677.75 432.078 677.328 432.5 677.328 433.016C677.328 433.531 677.75 433.953 678.266 433.953ZM677.578 444H678.938V435.578H677.578V444ZM681.578 444H682.938V432.234H681.578V444ZM686.656 438.031C687.219 438.031 687.672 437.57 687.672 437.016C687.672 436.453 687.219 436 686.656 436C686.102 436 685.641 436.453 685.641 437.016C685.641 437.57 686.102 438.031 686.656 438.031ZM685.203 446.867H686.211L687.438 442.422H685.883L685.203 446.867ZM695.516 433.953C696.031 433.953 696.453 433.531 696.453 433.016C696.453 432.5 696.031 432.078 695.516 432.078C695 432.078 694.578 432.5 694.578 433.016C694.578 433.531 695 433.953 695.516 433.953ZM694.828 444H696.188V435.578H694.828V444ZM701.742 444.062C702.008 444.062 702.266 444.031 702.531 443.984V442.828C702.281 442.852 702.148 442.859 701.906 442.859C701.031 442.859 700.688 442.461 700.688 441.469V436.703H702.531V435.578H700.688V433.398H699.281V435.578H697.953V436.703H699.281V441.812C699.281 443.422 700.008 444.062 701.742 444.062ZM710.688 444H712.047L713.922 437.484H714.047L715.93 444H717.297L719.656 435.578H718.305L716.648 442.312H716.523L714.641 435.578H713.352L711.469 442.312H711.344L709.688 435.578H708.328L710.688 444ZM723.531 444.148C724.664 444.148 725.547 443.656 726.078 442.758H726.203V444H727.562V438.234C727.562 436.484 726.414 435.43 724.359 435.43C722.562 435.43 721.281 436.32 721.062 437.641L721.055 437.688H722.414L722.422 437.664C722.641 437.008 723.305 436.633 724.312 436.633C725.57 436.633 726.203 437.195 726.203 438.234V439L723.789 439.148C721.828 439.266 720.719 440.133 720.719 441.633V441.648C720.719 443.18 721.93 444.148 723.531 444.148ZM722.109 441.617V441.602C722.109 440.766 722.672 440.312 723.953 440.234L726.203 440.094V440.859C726.203 442.062 725.195 442.969 723.812 442.969C722.836 442.969 722.109 442.469 722.109 441.617ZM732.938 444.148C734.852 444.148 736.312 443.109 736.312 441.609V441.594C736.312 440.391 735.547 439.703 733.961 439.32L732.664 439.008C731.672 438.766 731.25 438.406 731.25 437.836V437.82C731.25 437.078 731.984 436.562 732.984 436.562C734 436.562 734.656 437.023 734.836 437.688H736.172C735.984 436.312 734.758 435.43 732.992 435.43C731.203 435.43 729.859 436.484 729.859 437.883V437.891C729.859 439.102 730.57 439.789 732.148 440.164L733.453 440.477C734.492 440.727 734.922 441.125 734.922 441.695V441.711C734.922 442.477 734.117 443.016 732.984 443.016C731.906 443.016 731.234 442.555 731.008 441.852H729.617C729.773 443.242 731.062 444.148 732.938 444.148ZM745.812 444.148C747.727 444.148 749.188 443.109 749.188 441.609V441.594C749.188 440.391 748.422 439.703 746.836 439.32L745.539 439.008C744.547 438.766 744.125 438.406 744.125 437.836V437.82C744.125 437.078 744.859 436.562 745.859 436.562C746.875 436.562 747.531 437.023 747.711 437.688H749.047C748.859 436.312 747.633 435.43 745.867 435.43C744.078 435.43 742.734 436.484 742.734 437.883V437.891C742.734 439.102 743.445 439.789 745.023 440.164L746.328 440.477C747.367 440.727 747.797 441.125 747.797 441.695V441.711C747.797 442.477 746.992 443.016 745.859 443.016C744.781 443.016 744.109 442.555 743.883 441.852H742.492C742.648 443.242 743.938 444.148 745.812 444.148ZM754.734 444.148C756.719 444.148 757.922 443.023 758.211 441.883L758.227 441.82H756.867L756.836 441.891C756.609 442.398 755.906 442.938 754.766 442.938C753.266 442.938 752.305 441.922 752.266 440.18H758.328V439.648C758.328 437.133 756.938 435.43 754.648 435.43C752.359 435.43 750.875 437.211 750.875 439.812V439.82C750.875 442.461 752.328 444.148 754.734 444.148ZM754.641 436.641C755.883 436.641 756.805 437.43 756.945 439.094H752.289C752.438 437.492 753.391 436.641 754.641 436.641ZM760.438 444H761.797V439.016C761.797 437.539 762.648 436.633 763.992 436.633C765.336 436.633 765.961 437.359 765.961 438.875V444H767.32V438.547C767.32 436.547 766.266 435.43 764.375 435.43C763.133 435.43 762.344 435.953 761.922 436.844H761.797V435.578H760.438V444ZM772.773 444.062C773.039 444.062 773.297 444.031 773.562 443.984V442.828C773.312 442.852 773.18 442.859 772.938 442.859C772.062 442.859 771.719 442.461 771.719 441.469V436.703H773.562V435.578H771.719V433.398H770.312V435.578H768.984V436.703H770.312V441.812C770.312 443.422 771.039 444.062 772.773 444.062ZM780.656 444H782.016V436.703H783.93V435.578H782.016V434.68C782.016 433.758 782.406 433.281 783.375 433.281C783.617 433.281 783.844 433.289 784.008 433.32V432.234C783.727 432.18 783.43 432.156 783.102 432.156C781.5 432.156 780.656 432.961 780.656 434.641V435.578H779.258V436.703H780.656V444ZM785.891 444H787.25V438.781C787.25 437.547 788.172 436.727 789.469 436.727C789.766 436.727 790.023 436.758 790.305 436.805V435.484C790.172 435.461 789.883 435.43 789.625 435.43C788.484 435.43 787.695 435.945 787.375 436.828H787.25V435.578H785.891V444ZM795.211 444.148C797.609 444.148 799.094 442.492 799.094 439.797V439.781C799.094 437.078 797.609 435.43 795.211 435.43C792.812 435.43 791.328 437.078 791.328 439.781V439.797C791.328 442.492 792.812 444.148 795.211 444.148ZM795.211 442.945C793.617 442.945 792.719 441.781 792.719 439.797V439.781C792.719 437.789 793.617 436.633 795.211 436.633C796.805 436.633 797.703 437.789 797.703 439.781V439.797C797.703 441.781 796.805 442.945 795.211 442.945ZM801.203 444H802.562V438.781C802.562 437.594 803.398 436.633 804.5 436.633C805.562 436.633 806.25 437.281 806.25 438.281V444H807.609V438.586C807.609 437.516 808.383 436.633 809.555 436.633C810.742 436.633 811.312 437.25 811.312 438.492V444H812.672V438.18C812.672 436.414 811.711 435.43 809.992 435.43C808.828 435.43 807.867 436.016 807.414 436.906H807.289C806.898 436.031 806.102 435.43 804.961 435.43C803.859 435.43 803.062 435.953 802.688 436.859H802.562V435.578H801.203V444ZM821.938 444.148C823.07 444.148 823.953 443.656 824.484 442.758H824.609V444H825.969V438.234C825.969 436.484 824.82 435.43 822.766 435.43C820.969 435.43 819.688 436.32 819.469 437.641L819.461 437.688H820.82L820.828 437.664C821.047 437.008 821.711 436.633 822.719 436.633C823.977 436.633 824.609 437.195 824.609 438.234V439L822.195 439.148C820.234 439.266 819.125 440.133 819.125 441.633V441.648C819.125 443.18 820.336 444.148 821.938 444.148ZM820.516 441.617V441.602C820.516 440.766 821.078 440.312 822.359 440.234L824.609 440.094V440.859C824.609 442.062 823.602 442.969 822.219 442.969C821.242 442.969 820.516 442.469 820.516 441.617ZM828.453 444H829.812V439.016C829.812 437.539 830.664 436.633 832.008 436.633C833.352 436.633 833.977 437.359 833.977 438.875V444H835.336V438.547C835.336 436.547 834.281 435.43 832.391 435.43C831.148 435.43 830.359 435.953 829.938 436.844H829.812V435.578H828.453V444ZM845.117 444.148C846.352 444.148 847.203 443.641 847.617 442.742H847.742V444H849.102V435.578H847.742V440.562C847.742 442.039 846.953 442.945 845.469 442.945C844.125 442.945 843.578 442.219 843.578 440.703V435.578H842.219V441.031C842.219 443.023 843.203 444.148 845.117 444.148ZM851.641 444H853V439.016C853 437.539 853.852 436.633 855.195 436.633C856.539 436.633 857.164 437.359 857.164 438.875V444H858.523V438.547C858.523 436.547 857.469 435.43 855.578 435.43C854.336 435.43 853.547 435.953 853.125 436.844H853V435.578H851.641V444ZM860.984 444H862.344V438.781C862.344 437.594 863.18 436.633 864.281 436.633C865.344 436.633 866.031 437.281 866.031 438.281V444H867.391V438.586C867.391 437.516 868.164 436.633 869.336 436.633C870.523 436.633 871.094 437.25 871.094 438.492V444H872.453V438.18C872.453 436.414 871.492 435.43 869.773 435.43C868.609 435.43 867.648 436.016 867.195 436.906H867.07C866.68 436.031 865.883 435.43 864.742 435.43C863.641 435.43 862.844 435.953 862.469 436.859H862.344V435.578H860.984V444ZM878.367 444.148C880.766 444.148 882.25 442.492 882.25 439.797V439.781C882.25 437.078 880.766 435.43 878.367 435.43C875.969 435.43 874.484 437.078 874.484 439.781V439.797C874.484 442.492 875.969 444.148 878.367 444.148ZM878.367 442.945C876.773 442.945 875.875 441.781 875.875 439.797V439.781C875.875 437.789 876.773 436.633 878.367 436.633C879.961 436.633 880.859 437.789 880.859 439.781V439.797C880.859 441.781 879.961 442.945 878.367 442.945ZM884.359 444H885.719V439.016C885.719 437.539 886.57 436.633 887.914 436.633C889.258 436.633 889.883 437.359 889.883 438.875V444H891.242V438.547C891.242 436.547 890.188 435.43 888.297 435.43C887.055 435.43 886.266 435.953 885.844 436.844H885.719V435.578H884.359V444ZM894.422 433.953C894.938 433.953 895.359 433.531 895.359 433.016C895.359 432.5 894.938 432.078 894.422 432.078C893.906 432.078 893.484 432.5 893.484 433.016C893.484 433.531 893.906 433.953 894.422 433.953ZM893.734 444H895.094V435.578H893.734V444ZM900.648 444.062C900.914 444.062 901.172 444.031 901.438 443.984V442.828C901.188 442.852 901.055 442.859 900.812 442.859C899.938 442.859 899.594 442.461 899.594 441.469V436.703H901.438V435.578H899.594V433.398H898.188V435.578H896.859V436.703H898.188V441.812C898.188 443.422 898.914 444.062 900.648 444.062ZM906.805 444.148C909.203 444.148 910.688 442.492 910.688 439.797V439.781C910.688 437.078 909.203 435.43 906.805 435.43C904.406 435.43 902.922 437.078 902.922 439.781V439.797C902.922 442.492 904.406 444.148 906.805 444.148ZM906.805 442.945C905.211 442.945 904.312 441.781 904.312 439.797V439.781C904.312 437.789 905.211 436.633 906.805 436.633C908.398 436.633 909.297 437.789 909.297 439.781V439.797C909.297 441.781 908.398 442.945 906.805 442.945ZM912.797 444H914.156V438.781C914.156 437.547 915.078 436.727 916.375 436.727C916.672 436.727 916.93 436.758 917.211 436.805V435.484C917.078 435.461 916.789 435.43 916.531 435.43C915.391 435.43 914.602 435.945 914.281 436.828H914.156V435.578H912.797V444ZM922.094 444.148C924.078 444.148 925.281 443.023 925.57 441.883L925.586 441.82H924.227L924.195 441.891C923.969 442.398 923.266 442.938 922.125 442.938C920.625 442.938 919.664 441.922 919.625 440.18H925.688V439.648C925.688 437.133 924.297 435.43 922.008 435.43C919.719 435.43 918.234 437.211 918.234 439.812V439.82C918.234 442.461 919.688 444.148 922.094 444.148ZM922 436.641C923.242 436.641 924.164 437.43 924.305 439.094H919.648C919.797 437.492 920.75 436.641 922 436.641ZM930.906 444.148C932.078 444.148 933.016 443.594 933.531 442.656H933.656V444H935.016V432.234H933.656V436.906H933.531C933.07 436.008 932.062 435.43 930.906 435.43C928.766 435.43 927.375 437.141 927.375 439.781V439.797C927.375 442.422 928.773 444.148 930.906 444.148ZM931.219 442.945C929.68 442.945 928.766 441.758 928.766 439.797V439.781C928.766 437.82 929.68 436.633 931.219 436.633C932.75 436.633 933.688 437.836 933.688 439.781V439.797C933.688 441.742 932.75 442.945 931.219 442.945ZM945.562 444.148C947.547 444.148 948.75 443.023 949.039 441.883L949.055 441.82H947.695L947.664 441.891C947.438 442.398 946.734 442.938 945.594 442.938C944.094 442.938 943.133 441.922 943.094 440.18H949.156V439.648C949.156 437.133 947.766 435.43 945.477 435.43C943.188 435.43 941.703 437.211 941.703 439.812V439.82C941.703 442.461 943.156 444.148 945.562 444.148ZM945.469 436.641C946.711 436.641 947.633 437.43 947.773 439.094H943.117C943.266 437.492 944.219 436.641 945.469 436.641ZM951.266 444H952.625V438.781C952.625 437.594 953.461 436.633 954.562 436.633C955.625 436.633 956.312 437.281 956.312 438.281V444H957.672V438.586C957.672 437.516 958.445 436.633 959.617 436.633C960.805 436.633 961.375 437.25 961.375 438.492V444H962.734V438.18C962.734 436.414 961.773 435.43 960.055 435.43C958.891 435.43 957.93 436.016 957.477 436.906H957.352C956.961 436.031 956.164 435.43 955.023 435.43C953.922 435.43 953.125 435.953 952.75 436.859H952.625V435.578H951.266V444ZM967.5 444.148C968.633 444.148 969.516 443.656 970.047 442.758H970.172V444H971.531V438.234C971.531 436.484 970.383 435.43 968.328 435.43C966.531 435.43 965.25 436.32 965.031 437.641L965.023 437.688H966.383L966.391 437.664C966.609 437.008 967.273 436.633 968.281 436.633C969.539 436.633 970.172 437.195 970.172 438.234V439L967.758 439.148C965.797 439.266 964.688 440.133 964.688 441.633V441.648C964.688 443.18 965.898 444.148 967.5 444.148ZM966.078 441.617V441.602C966.078 440.766 966.641 440.312 967.922 440.234L970.172 440.094V440.859C970.172 442.062 969.164 442.969 967.781 442.969C966.805 442.969 966.078 442.469 966.078 441.617ZM974.734 433.953C975.25 433.953 975.672 433.531 975.672 433.016C975.672 432.5 975.25 432.078 974.734 432.078C974.219 432.078 973.797 432.5 973.797 433.016C973.797 433.531 974.219 433.953 974.734 433.953ZM974.047 444H975.406V435.578H974.047V444ZM978.047 444H979.406V432.234H978.047V444ZM499.578 470.148C500.711 470.148 501.594 469.656 502.125 468.758H502.25V470H503.609V464.234C503.609 462.484 502.461 461.43 500.406 461.43C498.609 461.43 497.328 462.32 497.109 463.641L497.102 463.688H498.461L498.469 463.664C498.688 463.008 499.352 462.633 500.359 462.633C501.617 462.633 502.25 463.195 502.25 464.234V465L499.836 465.148C497.875 465.266 496.766 466.133 496.766 467.633V467.648C496.766 469.18 497.977 470.148 499.578 470.148ZM498.156 467.617V467.602C498.156 466.766 498.719 466.312 500 466.234L502.25 466.094V466.859C502.25 468.062 501.242 468.969 499.859 468.969C498.883 468.969 498.156 468.469 498.156 467.617ZM509.203 470.148C510.375 470.148 511.312 469.594 511.828 468.656H511.953V470H513.312V458.234H511.953V462.906H511.828C511.367 462.008 510.359 461.43 509.203 461.43C507.062 461.43 505.672 463.141 505.672 465.781V465.797C505.672 468.422 507.07 470.148 509.203 470.148ZM509.516 468.945C507.977 468.945 507.062 467.758 507.062 465.797V465.781C507.062 463.82 507.977 462.633 509.516 462.633C511.047 462.633 511.984 463.836 511.984 465.781V465.797C511.984 467.742 511.047 468.945 509.516 468.945ZM519.031 470.148C520.203 470.148 521.141 469.594 521.656 468.656H521.781V470H523.141V458.234H521.781V462.906H521.656C521.195 462.008 520.188 461.43 519.031 461.43C516.891 461.43 515.5 463.141 515.5 465.781V465.797C515.5 468.422 516.898 470.148 519.031 470.148ZM519.344 468.945C517.805 468.945 516.891 467.758 516.891 465.797V465.781C516.891 463.82 517.805 462.633 519.344 462.633C520.875 462.633 521.812 463.836 521.812 465.781V465.797C521.812 467.742 520.875 468.945 519.344 468.945ZM525.75 470H527.109V464.781C527.109 463.547 528.031 462.727 529.328 462.727C529.625 462.727 529.883 462.758 530.164 462.805V461.484C530.031 461.461 529.742 461.43 529.484 461.43C528.344 461.43 527.555 461.945 527.234 462.828H527.109V461.578H525.75V470ZM535.047 470.148C537.031 470.148 538.234 469.023 538.523 467.883L538.539 467.82H537.18L537.148 467.891C536.922 468.398 536.219 468.938 535.078 468.938C533.578 468.938 532.617 467.922 532.578 466.18H538.641V465.648C538.641 463.133 537.25 461.43 534.961 461.43C532.672 461.43 531.188 463.211 531.188 465.812V465.82C531.188 468.461 532.641 470.148 535.047 470.148ZM534.953 462.641C536.195 462.641 537.117 463.43 537.258 465.094H532.602C532.75 463.492 533.703 462.641 534.953 462.641ZM543.641 470.148C545.555 470.148 547.016 469.109 547.016 467.609V467.594C547.016 466.391 546.25 465.703 544.664 465.32L543.367 465.008C542.375 464.766 541.953 464.406 541.953 463.836V463.82C541.953 463.078 542.688 462.562 543.688 462.562C544.703 462.562 545.359 463.023 545.539 463.688H546.875C546.688 462.312 545.461 461.43 543.695 461.43C541.906 461.43 540.562 462.484 540.562 463.883V463.891C540.562 465.102 541.273 465.789 542.852 466.164L544.156 466.477C545.195 466.727 545.625 467.125 545.625 467.695V467.711C545.625 468.477 544.82 469.016 543.688 469.016C542.609 469.016 541.938 468.555 541.711 467.852H540.32C540.477 469.242 541.766 470.148 543.641 470.148ZM551.859 470.148C553.773 470.148 555.234 469.109 555.234 467.609V467.594C555.234 466.391 554.469 465.703 552.883 465.32L551.586 465.008C550.594 464.766 550.172 464.406 550.172 463.836V463.82C550.172 463.078 550.906 462.562 551.906 462.562C552.922 462.562 553.578 463.023 553.758 463.688H555.094C554.906 462.312 553.68 461.43 551.914 461.43C550.125 461.43 548.781 462.484 548.781 463.883V463.891C548.781 465.102 549.492 465.789 551.07 466.164L552.375 466.477C553.414 466.727 553.844 467.125 553.844 467.695V467.711C553.844 468.477 553.039 469.016 551.906 469.016C550.828 469.016 550.156 468.555 549.93 467.852H548.539C548.695 469.242 549.984 470.148 551.859 470.148ZM558.453 470.078C559.016 470.078 559.469 469.617 559.469 469.062C559.469 468.5 559.016 468.047 558.453 468.047C557.898 468.047 557.438 468.5 557.438 469.062C557.438 469.617 557.898 470.078 558.453 470.078ZM497.438 496H498.844V491.117H503.836V489.867H498.844V485.992H504.281V484.727H497.438V496ZM509.883 496.148C512.281 496.148 513.766 494.492 513.766 491.797V491.781C513.766 489.078 512.281 487.43 509.883 487.43C507.484 487.43 506 489.078 506 491.781V491.797C506 494.492 507.484 496.148 509.883 496.148ZM509.883 494.945C508.289 494.945 507.391 493.781 507.391 491.797V491.781C507.391 489.789 508.289 488.633 509.883 488.633C511.477 488.633 512.375 489.789 512.375 491.781V491.797C512.375 493.781 511.477 494.945 509.883 494.945ZM515.875 496H517.234V490.781C517.234 489.547 518.156 488.727 519.453 488.727C519.75 488.727 520.008 488.758 520.289 488.805V487.484C520.156 487.461 519.867 487.43 519.609 487.43C518.469 487.43 517.68 487.945 517.359 488.828H517.234V487.578H515.875V496ZM527.188 485.953C527.703 485.953 528.125 485.531 528.125 485.016C528.125 484.5 527.703 484.078 527.188 484.078C526.672 484.078 526.25 484.5 526.25 485.016C526.25 485.531 526.672 485.953 527.188 485.953ZM526.5 496H527.859V487.578H526.5V496ZM530.422 496H531.781V491.016C531.781 489.539 532.633 488.633 533.977 488.633C535.32 488.633 535.945 489.359 535.945 490.875V496H537.305V490.547C537.305 488.547 536.25 487.43 534.359 487.43C533.117 487.43 532.328 487.953 531.906 488.844H531.781V487.578H530.422V496ZM545.641 498.812H547V487.578H545.641V488.984H545.547C545.008 488.023 544.016 487.43 542.883 487.43C540.734 487.43 539.344 489.141 539.344 491.781V491.797C539.344 494.422 540.742 496.148 542.883 496.148C544.086 496.148 545.055 495.625 545.516 494.734H545.641V498.812ZM543.203 494.945C541.656 494.945 540.734 493.758 540.734 491.797V491.781C540.734 489.82 541.656 488.633 543.195 488.633C544.719 488.633 545.68 489.844 545.68 491.781V491.797C545.68 493.727 544.719 494.945 543.203 494.945ZM552.336 496.148C553.57 496.148 554.422 495.641 554.836 494.742H554.961V496H556.32V487.578H554.961V492.562C554.961 494.039 554.172 494.945 552.688 494.945C551.344 494.945 550.797 494.219 550.797 492.703V487.578H549.438V493.031C549.438 495.023 550.422 496.148 552.336 496.148ZM559.578 485.953C560.094 485.953 560.516 485.531 560.516 485.016C560.516 484.5 560.094 484.078 559.578 484.078C559.062 484.078 558.641 484.5 558.641 485.016C558.641 485.531 559.062 485.953 559.578 485.953ZM558.891 496H560.25V487.578H558.891V496ZM562.812 496H564.172V490.781C564.172 489.547 565.094 488.727 566.391 488.727C566.688 488.727 566.945 488.758 567.227 488.805V487.484C567.094 487.461 566.805 487.43 566.547 487.43C565.406 487.43 564.617 487.945 564.297 488.828H564.172V487.578H562.812V496ZM569.625 485.953C570.141 485.953 570.562 485.531 570.562 485.016C570.562 484.5 570.141 484.078 569.625 484.078C569.109 484.078 568.688 484.5 568.688 485.016C568.688 485.531 569.109 485.953 569.625 485.953ZM568.938 496H570.297V487.578H568.938V496ZM576.297 496.148C578.281 496.148 579.484 495.023 579.773 493.883L579.789 493.82H578.43L578.398 493.891C578.172 494.398 577.469 494.938 576.328 494.938C574.828 494.938 573.867 493.922 573.828 492.18H579.891V491.648C579.891 489.133 578.5 487.43 576.211 487.43C573.922 487.43 572.438 489.211 572.438 491.812V491.82C572.438 494.461 573.891 496.148 576.297 496.148ZM576.203 488.641C577.445 488.641 578.367 489.43 578.508 491.094H573.852C574 489.492 574.953 488.641 576.203 488.641ZM584.891 496.148C586.805 496.148 588.266 495.109 588.266 493.609V493.594C588.266 492.391 587.5 491.703 585.914 491.32L584.617 491.008C583.625 490.766 583.203 490.406 583.203 489.836V489.82C583.203 489.078 583.938 488.562 584.938 488.562C585.953 488.562 586.609 489.023 586.789 489.688H588.125C587.938 488.312 586.711 487.43 584.945 487.43C583.156 487.43 581.812 488.484 581.812 489.883V489.891C581.812 491.102 582.523 491.789 584.102 492.164L585.406 492.477C586.445 492.727 586.875 493.125 586.875 493.695V493.711C586.875 494.477 586.07 495.016 584.938 495.016C583.859 495.016 583.188 494.555 582.961 493.852H581.57C581.727 495.242 583.016 496.148 584.891 496.148ZM590.031 498.867H591.039L592.266 494.422H590.711L590.031 498.867ZM599.625 498.812H600.984V494.672H601.109C601.57 495.57 602.578 496.148 603.734 496.148C605.875 496.148 607.266 494.438 607.266 491.797V491.781C607.266 489.156 605.867 487.43 603.734 487.43C602.562 487.43 601.625 487.984 601.109 488.922H600.984V487.578H599.625V498.812ZM603.422 494.945C601.891 494.945 600.953 493.742 600.953 491.797V491.781C600.953 489.836 601.891 488.633 603.422 488.633C604.961 488.633 605.875 489.82 605.875 491.781V491.797C605.875 493.758 604.961 494.945 603.422 494.945ZM609.469 496H610.828V484.234H609.469V496ZM616.875 496.148C618.859 496.148 620.062 495.023 620.352 493.883L620.367 493.82H619.008L618.977 493.891C618.75 494.398 618.047 494.938 616.906 494.938C615.406 494.938 614.445 493.922 614.406 492.18H620.469V491.648C620.469 489.133 619.078 487.43 616.789 487.43C614.5 487.43 613.016 489.211 613.016 491.812V491.82C613.016 494.461 614.469 496.148 616.875 496.148ZM616.781 488.641C618.023 488.641 618.945 489.43 619.086 491.094H614.43C614.578 489.492 615.531 488.641 616.781 488.641ZM624.891 496.148C626.023 496.148 626.906 495.656 627.438 494.758H627.562V496H628.922V490.234C628.922 488.484 627.773 487.43 625.719 487.43C623.922 487.43 622.641 488.32 622.422 489.641L622.414 489.688H623.773L623.781 489.664C624 489.008 624.664 488.633 625.672 488.633C626.93 488.633 627.562 489.195 627.562 490.234V491L625.148 491.148C623.188 491.266 622.078 492.133 622.078 493.633V493.648C622.078 495.18 623.289 496.148 624.891 496.148ZM623.469 493.617V493.602C623.469 492.766 624.031 492.312 625.312 492.234L627.562 492.094V492.859C627.562 494.062 626.555 494.969 625.172 494.969C624.195 494.969 623.469 494.469 623.469 493.617ZM634.297 496.148C636.211 496.148 637.672 495.109 637.672 493.609V493.594C637.672 492.391 636.906 491.703 635.32 491.32L634.023 491.008C633.031 490.766 632.609 490.406 632.609 489.836V489.82C632.609 489.078 633.344 488.562 634.344 488.562C635.359 488.562 636.016 489.023 636.195 489.688H637.531C637.344 488.312 636.117 487.43 634.352 487.43C632.562 487.43 631.219 488.484 631.219 489.883V489.891C631.219 491.102 631.93 491.789 633.508 492.164L634.812 492.477C635.852 492.727 636.281 493.125 636.281 493.695V493.711C636.281 494.477 635.477 495.016 634.344 495.016C633.266 495.016 632.594 494.555 632.367 493.852H630.977C631.133 495.242 632.422 496.148 634.297 496.148ZM643.219 496.148C645.203 496.148 646.406 495.023 646.695 493.883L646.711 493.82H645.352L645.32 493.891C645.094 494.398 644.391 494.938 643.25 494.938C641.75 494.938 640.789 493.922 640.75 492.18H646.812V491.648C646.812 489.133 645.422 487.43 643.133 487.43C640.844 487.43 639.359 489.211 639.359 491.812V491.82C639.359 494.461 640.812 496.148 643.219 496.148ZM643.125 488.641C644.367 488.641 645.289 489.43 645.43 491.094H640.773C640.922 489.492 641.875 488.641 643.125 488.641ZM656.867 496.148C658.891 496.148 660.023 495.062 660.367 493.539L660.383 493.453L659.039 493.461L659.023 493.508C658.711 494.445 657.992 494.945 656.859 494.945C655.359 494.945 654.391 493.703 654.391 491.766V491.75C654.391 489.852 655.344 488.633 656.859 488.633C658.07 488.633 658.82 489.305 659.031 490.133L659.039 490.156H660.391L660.383 490.109C660.133 488.609 658.906 487.43 656.859 487.43C654.5 487.43 653 489.133 653 491.75V491.766C653 494.438 654.508 496.148 656.867 496.148ZM665.836 496.148C668.234 496.148 669.719 494.492 669.719 491.797V491.781C669.719 489.078 668.234 487.43 665.836 487.43C663.438 487.43 661.953 489.078 661.953 491.781V491.797C661.953 494.492 663.438 496.148 665.836 496.148ZM665.836 494.945C664.242 494.945 663.344 493.781 663.344 491.797V491.781C663.344 489.789 664.242 488.633 665.836 488.633C667.43 488.633 668.328 489.789 668.328 491.781V491.797C668.328 493.781 667.43 494.945 665.836 494.945ZM671.828 496H673.188V491.016C673.188 489.539 674.039 488.633 675.383 488.633C676.727 488.633 677.352 489.359 677.352 490.875V496H678.711V490.547C678.711 488.547 677.656 487.43 675.766 487.43C674.523 487.43 673.734 487.953 673.312 488.844H673.188V487.578H671.828V496ZM684.164 496.062C684.43 496.062 684.688 496.031 684.953 495.984V494.828C684.703 494.852 684.57 494.859 684.328 494.859C683.453 494.859 683.109 494.461 683.109 493.469V488.703H684.953V487.578H683.109V485.398H681.703V487.578H680.375V488.703H681.703V493.812C681.703 495.422 682.43 496.062 684.164 496.062ZM689.297 496.148C690.43 496.148 691.312 495.656 691.844 494.758H691.969V496H693.328V490.234C693.328 488.484 692.18 487.43 690.125 487.43C688.328 487.43 687.047 488.32 686.828 489.641L686.82 489.688H688.18L688.188 489.664C688.406 489.008 689.07 488.633 690.078 488.633C691.336 488.633 691.969 489.195 691.969 490.234V491L689.555 491.148C687.594 491.266 686.484 492.133 686.484 493.633V493.648C686.484 495.18 687.695 496.148 689.297 496.148ZM687.875 493.617V493.602C687.875 492.766 688.438 492.312 689.719 492.234L691.969 492.094V492.859C691.969 494.062 690.961 494.969 689.578 494.969C688.602 494.969 687.875 494.469 687.875 493.617ZM699.258 496.148C701.281 496.148 702.414 495.062 702.758 493.539L702.773 493.453L701.43 493.461L701.414 493.508C701.102 494.445 700.383 494.945 699.25 494.945C697.75 494.945 696.781 493.703 696.781 491.766V491.75C696.781 489.852 697.734 488.633 699.25 488.633C700.461 488.633 701.211 489.305 701.422 490.133L701.43 490.156H702.781L702.773 490.109C702.523 488.609 701.297 487.43 699.25 487.43C696.891 487.43 695.391 489.133 695.391 491.75V491.766C695.391 494.438 696.898 496.148 699.258 496.148ZM707.914 496.062C708.18 496.062 708.438 496.031 708.703 495.984V494.828C708.453 494.852 708.32 494.859 708.078 494.859C707.203 494.859 706.859 494.461 706.859 493.469V488.703H708.703V487.578H706.859V485.398H705.453V487.578H704.125V488.703H705.453V493.812C705.453 495.422 706.18 496.062 707.914 496.062ZM718.695 496.148C721.094 496.148 722.578 494.492 722.578 491.797V491.781C722.578 489.078 721.094 487.43 718.695 487.43C716.297 487.43 714.812 489.078 714.812 491.781V491.797C714.812 494.492 716.297 496.148 718.695 496.148ZM718.695 494.945C717.102 494.945 716.203 493.781 716.203 491.797V491.781C716.203 489.789 717.102 488.633 718.695 488.633C720.289 488.633 721.188 489.789 721.188 491.781V491.797C721.188 493.781 720.289 494.945 718.695 494.945ZM727.508 496.148C728.742 496.148 729.594 495.641 730.008 494.742H730.133V496H731.492V487.578H730.133V492.562C730.133 494.039 729.344 494.945 727.859 494.945C726.516 494.945 725.969 494.219 725.969 492.703V487.578H724.609V493.031C724.609 495.023 725.594 496.148 727.508 496.148ZM734.031 496H735.391V490.781C735.391 489.547 736.312 488.727 737.609 488.727C737.906 488.727 738.164 488.758 738.445 488.805V487.484C738.312 487.461 738.023 487.43 737.766 487.43C736.625 487.43 735.836 487.945 735.516 488.828H735.391V487.578H734.031V496ZM748.492 496.266C751.008 496.266 752.656 494.953 752.656 492.844V492.836C752.656 491.211 751.727 490.266 749.375 489.742L748.125 489.461C746.594 489.125 745.977 488.516 745.977 487.617V487.609C745.977 486.43 747.062 485.766 748.469 485.758C749.938 485.75 750.875 486.484 751.031 487.477L751.047 487.578H752.453L752.445 487.469C752.328 485.789 750.758 484.461 748.508 484.461C746.18 484.461 744.547 485.781 744.539 487.648V487.656C744.539 489.289 745.516 490.328 747.773 490.828L749.023 491.102C750.57 491.445 751.219 492.086 751.219 493.023V493.031C751.219 494.18 750.102 494.969 748.57 494.969C746.945 494.969 745.773 494.258 745.672 493.133L745.664 493.047H744.258L744.266 493.133C744.43 494.969 746.023 496.266 748.492 496.266ZM757.648 496.148C758.883 496.148 759.734 495.641 760.148 494.742H760.273V496H761.633V487.578H760.273V492.562C760.273 494.039 759.484 494.945 758 494.945C756.656 494.945 756.109 494.219 756.109 492.703V487.578H754.75V493.031C754.75 495.023 755.734 496.148 757.648 496.148ZM764.172 498.812H765.531V494.672H765.656C766.117 495.57 767.125 496.148 768.281 496.148C770.422 496.148 771.812 494.438 771.812 491.797V491.781C771.812 489.156 770.414 487.43 768.281 487.43C767.109 487.43 766.172 487.984 765.656 488.922H765.531V487.578H764.172V498.812ZM767.969 494.945C766.438 494.945 765.5 493.742 765.5 491.797V491.781C765.5 489.836 766.438 488.633 767.969 488.633C769.508 488.633 770.422 489.82 770.422 491.781V491.797C770.422 493.758 769.508 494.945 767.969 494.945ZM773.938 498.812H775.297V494.672H775.422C775.883 495.57 776.891 496.148 778.047 496.148C780.188 496.148 781.578 494.438 781.578 491.797V491.781C781.578 489.156 780.18 487.43 778.047 487.43C776.875 487.43 775.938 487.984 775.422 488.922H775.297V487.578H773.938V498.812ZM777.734 494.945C776.203 494.945 775.266 493.742 775.266 491.797V491.781C775.266 489.836 776.203 488.633 777.734 488.633C779.273 488.633 780.188 489.82 780.188 491.781V491.797C780.188 493.758 779.273 494.945 777.734 494.945ZM787.164 496.148C789.562 496.148 791.047 494.492 791.047 491.797V491.781C791.047 489.078 789.562 487.43 787.164 487.43C784.766 487.43 783.281 489.078 783.281 491.781V491.797C783.281 494.492 784.766 496.148 787.164 496.148ZM787.164 494.945C785.57 494.945 784.672 493.781 784.672 491.797V491.781C784.672 489.789 785.57 488.633 787.164 488.633C788.758 488.633 789.656 489.789 789.656 491.781V491.797C789.656 493.781 788.758 494.945 787.164 494.945ZM793.156 496H794.516V490.781C794.516 489.547 795.438 488.727 796.734 488.727C797.031 488.727 797.289 488.758 797.57 488.805V487.484C797.438 487.461 797.148 487.43 796.891 487.43C795.75 487.43 794.961 487.945 794.641 488.828H794.516V487.578H793.156V496ZM802.711 496.062C802.977 496.062 803.234 496.031 803.5 495.984V494.828C803.25 494.852 803.117 494.859 802.875 494.859C802 494.859 801.656 494.461 801.656 493.469V488.703H803.5V487.578H801.656V485.398H800.25V487.578H798.922V488.703H800.25V493.812C800.25 495.422 800.977 496.062 802.711 496.062ZM812.344 496.148C813.477 496.148 814.359 495.656 814.891 494.758H815.016V496H816.375V490.234C816.375 488.484 815.227 487.43 813.172 487.43C811.375 487.43 810.094 488.32 809.875 489.641L809.867 489.688H811.227L811.234 489.664C811.453 489.008 812.117 488.633 813.125 488.633C814.383 488.633 815.016 489.195 815.016 490.234V491L812.602 491.148C810.641 491.266 809.531 492.133 809.531 493.633V493.648C809.531 495.18 810.742 496.148 812.344 496.148ZM810.922 493.617V493.602C810.922 492.766 811.484 492.312 812.766 492.234L815.016 492.094V492.859C815.016 494.062 814.008 494.969 812.625 494.969C811.648 494.969 810.922 494.469 810.922 493.617ZM821.852 496.062C822.117 496.062 822.375 496.031 822.641 495.984V494.828C822.391 494.852 822.258 494.859 822.016 494.859C821.141 494.859 820.797 494.461 820.797 493.469V488.703H822.641V487.578H820.797V485.398H819.391V487.578H818.062V488.703H819.391V493.812C819.391 495.422 820.117 496.062 821.852 496.062ZM829.719 489.172H830.844L831.008 484.727H829.555L829.719 489.172ZM832.609 489.172H833.734L833.898 484.727H832.445L832.609 489.172ZM837.359 489.172H838.484L838.648 484.727H837.195L837.359 489.172ZM840.25 489.172H841.375L841.539 484.727H840.086L840.25 489.172ZM846.766 496.148C847.898 496.148 848.781 495.656 849.312 494.758H849.438V496H850.797V490.234C850.797 488.484 849.648 487.43 847.594 487.43C845.797 487.43 844.516 488.32 844.297 489.641L844.289 489.688H845.648L845.656 489.664C845.875 489.008 846.539 488.633 847.547 488.633C848.805 488.633 849.438 489.195 849.438 490.234V491L847.023 491.148C845.062 491.266 843.953 492.133 843.953 493.633V493.648C843.953 495.18 845.164 496.148 846.766 496.148ZM845.344 493.617V493.602C845.344 492.766 845.906 492.312 847.188 492.234L849.438 492.094V492.859C849.438 494.062 848.43 494.969 847.047 494.969C846.07 494.969 845.344 494.469 845.344 493.617ZM853.281 496H854.641V490.781C854.641 489.594 855.477 488.633 856.578 488.633C857.641 488.633 858.328 489.281 858.328 490.281V496H859.688V490.586C859.688 489.516 860.461 488.633 861.633 488.633C862.82 488.633 863.391 489.25 863.391 490.492V496H864.75V490.18C864.75 488.414 863.789 487.43 862.07 487.43C860.906 487.43 859.945 488.016 859.492 488.906H859.367C858.977 488.031 858.18 487.43 857.039 487.43C855.938 487.43 855.141 487.953 854.766 488.859H854.641V487.578H853.281V496ZM870.094 496.148C872.008 496.148 873.469 495.109 873.469 493.609V493.594C873.469 492.391 872.703 491.703 871.117 491.32L869.82 491.008C868.828 490.766 868.406 490.406 868.406 489.836V489.82C868.406 489.078 869.141 488.562 870.141 488.562C871.156 488.562 871.812 489.023 871.992 489.688H873.328C873.141 488.312 871.914 487.43 870.148 487.43C868.359 487.43 867.016 488.484 867.016 489.883V489.891C867.016 491.102 867.727 491.789 869.305 492.164L870.609 492.477C871.648 492.727 872.078 493.125 872.078 493.695V493.711C872.078 494.477 871.273 495.016 870.141 495.016C869.062 495.016 868.391 494.555 868.164 493.852H866.773C866.93 495.242 868.219 496.148 870.094 496.148ZM876.297 485.953C876.812 485.953 877.234 485.531 877.234 485.016C877.234 484.5 876.812 484.078 876.297 484.078C875.781 484.078 875.359 484.5 875.359 485.016C875.359 485.531 875.781 485.953 876.297 485.953ZM875.609 496H876.969V487.578H875.609V496ZM880.641 496.078C881.203 496.078 881.656 495.617 881.656 495.062C881.656 494.5 881.203 494.047 880.641 494.047C880.086 494.047 879.625 494.5 879.625 495.062C879.625 495.617 880.086 496.078 880.641 496.078ZM887.414 496.148C889.438 496.148 890.57 495.062 890.914 493.539L890.93 493.453L889.586 493.461L889.57 493.508C889.258 494.445 888.539 494.945 887.406 494.945C885.906 494.945 884.938 493.703 884.938 491.766V491.75C884.938 489.852 885.891 488.633 887.406 488.633C888.617 488.633 889.367 489.305 889.578 490.133L889.586 490.156H890.938L890.93 490.109C890.68 488.609 889.453 487.43 887.406 487.43C885.047 487.43 883.547 489.133 883.547 491.75V491.766C883.547 494.438 885.055 496.148 887.414 496.148ZM896.383 496.148C898.781 496.148 900.266 494.492 900.266 491.797V491.781C900.266 489.078 898.781 487.43 896.383 487.43C893.984 487.43 892.5 489.078 892.5 491.781V491.797C892.5 494.492 893.984 496.148 896.383 496.148ZM896.383 494.945C894.789 494.945 893.891 493.781 893.891 491.797V491.781C893.891 489.789 894.789 488.633 896.383 488.633C897.977 488.633 898.875 489.789 898.875 491.781V491.797C898.875 493.781 897.977 494.945 896.383 494.945ZM902.375 496H903.734V490.781C903.734 489.594 904.57 488.633 905.672 488.633C906.734 488.633 907.422 489.281 907.422 490.281V496H908.781V490.586C908.781 489.516 909.555 488.633 910.727 488.633C911.914 488.633 912.484 489.25 912.484 490.492V496H913.844V490.18C913.844 488.414 912.883 487.43 911.164 487.43C910 487.43 909.039 488.016 908.586 488.906H908.461C908.07 488.031 907.273 487.43 906.133 487.43C905.031 487.43 904.234 487.953 903.859 488.859H903.734V487.578H902.375V496ZM919.898 484.234H918.594L915.031 498.812H916.336L919.898 484.234ZM924.617 496.148C926.641 496.148 927.773 495.062 928.117 493.539L928.133 493.453L926.789 493.461L926.773 493.508C926.461 494.445 925.742 494.945 924.609 494.945C923.109 494.945 922.141 493.703 922.141 491.766V491.75C922.141 489.852 923.094 488.633 924.609 488.633C925.82 488.633 926.57 489.305 926.781 490.133L926.789 490.156H928.141L928.133 490.109C927.883 488.609 926.656 487.43 924.609 487.43C922.25 487.43 920.75 489.133 920.75 491.75V491.766C920.75 494.438 922.258 496.148 924.617 496.148ZM933.586 496.148C935.984 496.148 937.469 494.492 937.469 491.797V491.781C937.469 489.078 935.984 487.43 933.586 487.43C931.188 487.43 929.703 489.078 929.703 491.781V491.797C929.703 494.492 931.188 496.148 933.586 496.148ZM933.586 494.945C931.992 494.945 931.094 493.781 931.094 491.797V491.781C931.094 489.789 931.992 488.633 933.586 488.633C935.18 488.633 936.078 489.789 936.078 491.781V491.797C936.078 493.781 935.18 494.945 933.586 494.945ZM939.578 496H940.938V491.016C940.938 489.539 941.789 488.633 943.133 488.633C944.477 488.633 945.102 489.359 945.102 490.875V496H946.461V490.547C946.461 488.547 945.406 487.43 943.516 487.43C942.273 487.43 941.484 487.953 941.062 488.844H940.938V487.578H939.578V496ZM951.914 496.062C952.18 496.062 952.438 496.031 952.703 495.984V494.828C952.453 494.852 952.32 494.859 952.078 494.859C951.203 494.859 950.859 494.461 950.859 493.469V488.703H952.703V487.578H950.859V485.398H949.453V487.578H948.125V488.703H949.453V493.812C949.453 495.422 950.18 496.062 951.914 496.062ZM957.047 496.148C958.18 496.148 959.062 495.656 959.594 494.758H959.719V496H961.078V490.234C961.078 488.484 959.93 487.43 957.875 487.43C956.078 487.43 954.797 488.32 954.578 489.641L954.57 489.688H955.93L955.938 489.664C956.156 489.008 956.82 488.633 957.828 488.633C959.086 488.633 959.719 489.195 959.719 490.234V491L957.305 491.148C955.344 491.266 954.234 492.133 954.234 493.633V493.648C954.234 495.18 955.445 496.148 957.047 496.148ZM955.625 493.617V493.602C955.625 492.766 956.188 492.312 957.469 492.234L959.719 492.094V492.859C959.719 494.062 958.711 494.969 957.328 494.969C956.352 494.969 955.625 494.469 955.625 493.617ZM967.008 496.148C969.031 496.148 970.164 495.062 970.508 493.539L970.523 493.453L969.18 493.461L969.164 493.508C968.852 494.445 968.133 494.945 967 494.945C965.5 494.945 964.531 493.703 964.531 491.766V491.75C964.531 489.852 965.484 488.633 967 488.633C968.211 488.633 968.961 489.305 969.172 490.133L969.18 490.156H970.531L970.523 490.109C970.273 488.609 969.047 487.43 967 487.43C964.641 487.43 963.141 489.133 963.141 491.75V491.766C963.141 494.438 964.648 496.148 967.008 496.148ZM975.664 496.062C975.93 496.062 976.188 496.031 976.453 495.984V494.828C976.203 494.852 976.07 494.859 975.828 494.859C974.953 494.859 974.609 494.461 974.609 493.469V488.703H976.453V487.578H974.609V485.398H973.203V487.578H971.875V488.703H973.203V493.812C973.203 495.422 973.93 496.062 975.664 496.062ZM979.031 489.172H980.156L980.32 484.727H978.867L979.031 489.172ZM981.922 489.172H983.047L983.211 484.727H981.758L981.922 489.172ZM986.672 489.172H987.797L987.961 484.727H986.508L986.672 489.172ZM989.562 489.172H990.688L990.852 484.727H989.398L989.562 489.172Z" fill="#5B5B5B"/>
<path d="M9.25238 10.408H3.65238L2.54838 13H0.404375L5.44438 1.8H7.49238L12.5484 13H10.3724L9.25238 10.408ZM8.56437 8.776L6.45238 3.88L4.35638 8.776H8.56437ZM17.6226 13.112C16.7373 13.112 15.9426 12.9253 15.2386 12.552C14.5346 12.1787 13.9853 11.6613 13.5906 11C13.196 10.328 12.9986 9.57067 12.9986 8.728C12.9986 7.88533 13.196 7.13333 13.5906 6.472C13.9853 5.81067 14.5293 5.29333 15.2226 4.92C15.9266 4.54667 16.7266 4.36 17.6226 4.36C18.4653 4.36 19.2013 4.53067 19.8306 4.872C20.4706 5.21333 20.9506 5.704 21.2706 6.344L19.7346 7.24C19.4893 6.84533 19.18 6.552 18.8066 6.36C18.444 6.15733 18.044 6.056 17.6066 6.056C16.86 6.056 16.2413 6.30133 15.7506 6.792C15.26 7.272 15.0146 7.91733 15.0146 8.728C15.0146 9.53867 15.2546 10.1893 15.7346 10.68C16.2253 11.16 16.8493 11.4 17.6066 11.4C18.044 11.4 18.444 11.304 18.8066 11.112C19.18 10.9093 19.4893 10.6107 19.7346 10.216L21.2706 11.112C20.94 11.752 20.4546 12.248 19.8146 12.6C19.1853 12.9413 18.4546 13.112 17.6226 13.112ZM28.2449 12.536C28.0102 12.728 27.7222 12.872 27.3809 12.968C27.0502 13.064 26.6982 13.112 26.3249 13.112C25.3862 13.112 24.6609 12.8667 24.1489 12.376C23.6369 11.8853 23.3809 11.1707 23.3809 10.232V6.12H21.9729V4.52H23.3809V2.568H25.3809V4.52H27.6689V6.12H25.3809V10.184C25.3809 10.6 25.4822 10.92 25.6849 11.144C25.8875 11.3573 26.1809 11.464 26.5649 11.464C27.0129 11.464 27.3862 11.3467 27.6849 11.112L28.2449 12.536ZM29.8901 4.456H31.8901V13H29.8901V4.456ZM30.8981 3.048C30.5355 3.048 30.2315 2.936 29.9861 2.712C29.7408 2.47733 29.6181 2.18933 29.6181 1.848C29.6181 1.50667 29.7408 1.224 29.9861 0.999999C30.2315 0.765333 30.5355 0.648 30.8981 0.648C31.2608 0.648 31.5648 0.76 31.8101 0.983999C32.0555 1.19733 32.1781 1.46933 32.1781 1.8C32.1781 2.152 32.0555 2.45067 31.8101 2.696C31.5755 2.93067 31.2715 3.048 30.8981 3.048ZM42.5151 4.456L38.8511 13H36.7871L33.1231 4.456H35.2031L37.8591 10.792L40.5951 4.456H42.5151ZM46.7635 4.36C48.0222 4.36 48.9822 4.664 49.6435 5.272C50.3155 5.86933 50.6515 6.776 50.6515 7.992V13H48.7635V11.96C48.5182 12.3333 48.1662 12.6213 47.7075 12.824C47.2595 13.016 46.7155 13.112 46.0755 13.112C45.4355 13.112 44.8755 13.0053 44.3955 12.792C43.9155 12.568 43.5422 12.264 43.2755 11.88C43.0195 11.4853 42.8915 11.0427 42.8915 10.552C42.8915 9.784 43.1742 9.17067 43.7395 8.712C44.3155 8.24267 45.2168 8.008 46.4435 8.008H48.6515V7.88C48.6515 7.28267 48.4702 6.824 48.1075 6.504C47.7555 6.184 47.2275 6.024 46.5235 6.024C46.0435 6.024 45.5688 6.09867 45.0995 6.248C44.6408 6.39733 44.2515 6.60533 43.9315 6.872L43.1475 5.416C43.5955 5.07467 44.1342 4.81333 44.7635 4.632C45.3928 4.45067 46.0595 4.36 46.7635 4.36ZM46.4915 11.656C46.9928 11.656 47.4355 11.544 47.8195 11.32C48.2142 11.0853 48.4915 10.7547 48.6515 10.328V9.336H46.5875C45.4355 9.336 44.8595 9.71467 44.8595 10.472C44.8595 10.8347 45.0035 11.1227 45.2915 11.336C45.5795 11.5493 45.9795 11.656 46.4915 11.656ZM58.3543 12.536C58.1196 12.728 57.8316 12.872 57.4903 12.968C57.1596 13.064 56.8076 13.112 56.4343 13.112C55.4956 13.112 54.7703 12.8667 54.2582 12.376C53.7463 11.8853 53.4903 11.1707 53.4903 10.232V6.12H52.0823V4.52H53.4903V2.568H55.4903V4.52H57.7783V6.12H55.4903V10.184C55.4903 10.6 55.5916 10.92 55.7943 11.144C55.9969 11.3573 56.2903 11.464 56.6743 11.464C57.1223 11.464 57.4956 11.3467 57.7943 11.112L58.3543 12.536ZM67.7503 8.776C67.7503 8.91467 67.7396 9.112 67.7183 9.368H61.0143C61.1316 9.99733 61.4356 10.4987 61.9263 10.872C62.4276 11.2347 63.0463 11.416 63.7823 11.416C64.7209 11.416 65.4943 11.1067 66.1023 10.488L67.1743 11.72C66.7903 12.1787 66.3049 12.5253 65.7183 12.76C65.1316 12.9947 64.4703 13.112 63.7343 13.112C62.7956 13.112 61.9689 12.9253 61.2543 12.552C60.5396 12.1787 59.9849 11.6613 59.5903 11C59.2063 10.328 59.0143 9.57067 59.0143 8.728C59.0143 7.896 59.2009 7.14933 59.5743 6.488C59.9583 5.816 60.4863 5.29333 61.1583 4.92C61.8303 4.54667 62.5876 4.36 63.4303 4.36C64.2623 4.36 65.0036 4.54667 65.6543 4.92C66.3156 5.28267 66.8276 5.8 67.1903 6.472C67.5636 7.13333 67.7503 7.90133 67.7503 8.776ZM63.4303 5.96C62.7903 5.96 62.2463 6.152 61.7983 6.536C61.3609 6.90933 61.0943 7.41067 60.9983 8.04H65.8463C65.7609 7.42133 65.4996 6.92 65.0623 6.536C64.6249 6.152 64.0809 5.96 63.4303 5.96ZM84.2373 1.8V13H82.5253L76.3493 5.416V13H74.2853V1.8H75.9973L82.1733 9.384V1.8H84.2373ZM90.8864 13.112C90.0224 13.112 89.2437 12.9253 88.5504 12.552C87.857 12.1787 87.313 11.6613 86.9184 11C86.5344 10.328 86.3424 9.57067 86.3424 8.728C86.3424 7.88533 86.5344 7.13333 86.9184 6.472C87.313 5.81067 87.857 5.29333 88.5504 4.92C89.2437 4.54667 90.0224 4.36 90.8864 4.36C91.761 4.36 92.545 4.54667 93.2384 4.92C93.9317 5.29333 94.4704 5.81067 94.8544 6.472C95.249 7.13333 95.4464 7.88533 95.4464 8.728C95.4464 9.57067 95.249 10.328 94.8544 11C94.4704 11.6613 93.9317 12.1787 93.2384 12.552C92.545 12.9253 91.761 13.112 90.8864 13.112ZM90.8864 11.4C91.6224 11.4 92.2304 11.1547 92.7104 10.664C93.1904 10.1733 93.4304 9.528 93.4304 8.728C93.4304 7.928 93.1904 7.28267 92.7104 6.792C92.2304 6.30133 91.6224 6.056 90.8864 6.056C90.1504 6.056 89.5424 6.30133 89.0624 6.792C88.593 7.28267 88.3584 7.928 88.3584 8.728C88.3584 9.528 88.593 10.1733 89.0624 10.664C89.5424 11.1547 90.1504 11.4 90.8864 11.4ZM110.453 4.456L107.301 13H105.381L103.173 7.112L100.933 13H99.0125L95.8765 4.456H97.7645L100.021 10.76L102.373 4.456H104.053L106.357 10.792L108.677 4.456H110.453Z" fill="white"/>
<path fill-rule="evenodd" clip-rule="evenodd" d="M142.13 10.8005C142.388 11.0632 142.811 11.067 143.073 10.809L146.467 7.47563C146.595 7.35028 146.667 7.17889 146.667 7C146.667 6.82111 146.595 6.64972 146.467 6.52437L143.073 3.19103C142.811 2.93304 142.388 2.93684 142.13 3.19953C141.872 3.46221 141.876 3.88431 142.139 4.1423L144.37 6.33333L134 6.33333C133.632 6.33333 133.333 6.63181 133.333 7C133.333 7.36819 133.632 7.66667 134 7.66667L144.37 7.66667L142.139 9.8577C141.876 10.1157 141.872 10.5378 142.13 10.8005Z" fill="white"/>
</svg>
