<svg width="112" height="40" viewBox="0 0 112 40" fill="none" xmlns="http://www.w3.org/2000/svg">
<rect width="40" height="40" rx="8" fill="white"/>
<path d="M20 10C14.486 10 10 14.486 10 20C10 25.514 14.486 30 20 30C25.514 30 30 25.514 30 20C30 14.486 25.514 10 20 10ZM20 28C15.589 28 12 24.411 12 20C12 15.589 15.589 12 20 12C24.411 12 28 15.589 28 20C28 24.411 24.411 28 20 28Z" fill="black"/>
<path d="M21 14L15 21H19V26L25 19H21V14Z" fill="black"/>
<path d="M60.936 25.736H53.832L52.512 29H47.664L55.08 12.2H59.76L67.2 29H62.256L60.936 25.736ZM59.544 22.232L57.384 16.856L55.224 22.232H59.544ZM83.7152 29L83.6672 20.096L79.3472 27.344H77.2352L72.9392 20.336V29H68.5472V12.2H72.4592L78.3632 21.896L84.1232 12.2H88.0352L88.0832 29H83.7152ZM97.3496 29.336C95.9896 29.336 94.6696 29.168 93.3896 28.832C92.1096 28.496 91.0696 28.048 90.2696 27.488L91.8296 23.984C92.5816 24.48 93.4536 24.88 94.4456 25.184C95.4376 25.488 96.4136 25.64 97.3736 25.64C99.1976 25.64 100.11 25.184 100.11 24.272C100.11 23.792 99.8456 23.44 99.3176 23.216C98.8056 22.976 97.9736 22.728 96.8216 22.472C95.5576 22.2 94.5016 21.912 93.6536 21.608C92.8056 21.288 92.0776 20.784 91.4696 20.096C90.8616 19.408 90.5576 18.48 90.5576 17.312C90.5576 16.288 90.8376 15.368 91.3976 14.552C91.9576 13.72 92.7896 13.064 93.8936 12.584C95.0136 12.104 96.3816 11.864 97.9976 11.864C99.1016 11.864 100.19 11.992 101.262 12.248C102.334 12.488 103.278 12.848 104.094 13.328L102.63 16.856C101.03 15.992 99.4776 15.56 97.9736 15.56C97.0296 15.56 96.3416 15.704 95.9096 15.992C95.4776 16.264 95.2616 16.624 95.2616 17.072C95.2616 17.52 95.5176 17.856 96.0296 18.08C96.5416 18.304 97.3656 18.536 98.5016 18.776C99.7816 19.048 100.838 19.344 101.67 19.664C102.518 19.968 103.246 20.464 103.854 21.152C104.478 21.824 104.79 22.744 104.79 23.912C104.79 24.92 104.51 25.832 103.95 26.648C103.39 27.464 102.55 28.12 101.43 28.616C100.31 29.096 98.9496 29.336 97.3496 29.336ZM106.985 12.2H111.737V29H106.985V12.2Z" fill="white"/>
</svg>
