<svg width="24" height="24" viewBox="0 0 24 24" fill="none" xmlns="http://www.w3.org/2000/svg">
<path d="M18.6667 10.6667C19.12 10.6667 19.56 10.72 20 10.7867V4.36L10 0L0 4.36V10.9067C0 16.96 4.26667 22.6267 10 24C10.7333 23.8267 11.44 23.5733 12.1333 23.2667C11.2133 21.96 10.6667 20.3733 10.6667 18.6667C10.6667 14.2533 14.2533 10.6667 18.6667 10.6667Z" fill="#01AC50"/>
<path d="M18.6666 13.3333C15.72 13.3333 13.3333 15.72 13.3333 18.6667C13.3333 21.6133 15.72 24 18.6666 24C21.6133 24 24 21.6133 24 18.6667C24 15.72 21.6133 13.3333 18.6666 13.3333ZM18.6666 15.1733C19.4933 15.1733 20.16 15.8533 20.16 16.6667C20.16 17.48 19.48 18.16 18.6666 18.16C17.8533 18.16 17.1733 17.48 17.1733 16.6667C17.1733 15.8533 17.84 15.1733 18.6666 15.1733ZM18.6666 22.3333C17.4266 22.3333 16.3466 21.72 15.68 20.7733C15.7466 19.8133 17.6933 19.3333 18.6666 19.3333C19.64 19.3333 21.5866 19.8133 21.6533 20.7733C20.9866 21.72 19.9066 22.3333 18.6666 22.3333Z" fill="#01AC50"/>
</svg>
