<svg width="230" height="90" viewBox="0 0 230 90" fill="none" xmlns="http://www.w3.org/2000/svg">
<g clip-path="url(#clip0_49772_1628)">
<path d="M6.8 86.4992V86.5992C6.8 86.7992 6.6 86.8992 6.4 86.8992H2.7C1.7 86.8992 1 86.5992 1 85.5992C1 85.4992 1 85.2992 1.1 85.0992L2.8 74.9992C2.8 74.7992 3 74.6992 3.1 74.6992H3.3C3.5 74.6992 3.5 74.7992 3.5 74.8992L1.8 85.0992C1.8 85.2992 1.8 85.3992 1.8 85.5992C1.8 86.1992 2.1 86.2992 2.9 86.2992H6.7C6.7 86.1992 6.8 86.2992 6.8 86.4992Z" fill="black"/>
<path d="M17.2008 81.9L17.1008 82.3C17.1008 82.5 16.9008 82.6 16.7008 82.6H11.2008L11.1008 83C11.1008 83.4 11.0008 83.8 11.0008 84.1C11.0008 85.9 11.9008 86.4 13.5008 86.4C14.2008 86.4 15.2008 86.3 16.0008 86.1H16.1008C16.2008 86.1 16.3008 86.1 16.3008 86.2V86.3V86.4C16.2008 86.6 16.2008 86.6 15.9008 86.7C15.1008 86.9 14.1008 87 13.4008 87C11.6008 87 10.3008 86.2 10.3008 84.1C10.3008 83.8 10.3008 83.4 10.4008 83L10.6008 81.9C11.0008 79.3 12.4008 78 14.6008 78C16.5008 78 17.3008 79.2 17.3008 80.8C17.3008 81.2 17.3008 81.5 17.2008 81.9ZM14.5008 78.6C12.7008 78.6 11.7008 79.9 11.3008 81.9V82H16.5008V81.9C16.6008 81.5 16.6008 81.1 16.6008 80.7C16.6008 79.4 16.0008 78.6 14.5008 78.6Z" fill="black"/>
<path d="M27.8016 78.5994L26.4016 86.5994C26.4016 86.7994 26.2016 86.8994 26.0016 86.8994H25.9016C25.7016 86.8994 25.7016 86.7994 25.7016 86.5994C25.7016 86.5994 25.7016 86.5994 25.7016 86.4994L25.8016 85.9994C24.9016 86.4994 24.0016 86.9994 23.0016 86.9994C21.7016 86.9994 20.6016 86.1994 20.6016 84.5994C20.6016 84.3994 20.6016 84.0994 20.7016 83.7994L21.0016 81.8994C21.5016 79.0994 22.7016 77.8994 24.9016 77.8994C25.8016 77.8994 26.9016 78.0994 27.6016 78.1994C27.7016 78.1994 27.8016 78.2994 27.8016 78.3994C27.8016 78.4994 27.8016 78.5994 27.8016 78.5994ZM24.8016 78.5994C23.0016 78.5994 22.1016 79.7994 21.7016 81.9994L21.4016 83.8994C21.3016 84.1994 21.3016 84.4994 21.3016 84.6994C21.3016 86.0994 22.2016 86.3994 23.1016 86.3994C23.9016 86.3994 24.7016 85.9994 25.9016 85.3994L27.0016 78.8994C26.5016 78.7994 25.6016 78.5994 24.8016 78.5994Z" fill="black"/>
<path d="M35.5016 78.1998V78.2998C35.5016 78.4998 35.3016 78.4998 35.1016 78.4998C34.5016 78.4998 33.8016 78.6998 32.7016 79.2998L31.4016 86.4998C31.4016 86.6998 31.2016 86.7998 31.0016 86.7998H30.9016C30.8016 86.7998 30.6016 86.6998 30.6016 86.4998L32.0016 78.2998C32.0016 78.0998 32.2016 77.9998 32.4016 77.9998H32.5016C32.6016 77.9998 32.7016 78.0998 32.7016 78.1998V78.2998L32.6016 78.5998C33.5016 78.0998 34.1016 77.7998 34.9016 77.7998C35.4016 77.9998 35.5016 77.9998 35.5016 78.1998Z" fill="black"/>
<path d="M44.9992 81.1L43.9992 86.6C43.9992 86.8 43.7992 86.9 43.5992 86.9H43.4992C43.3992 86.9 43.2992 86.8 43.2992 86.6L44.2992 81.1C44.2992 80.8 44.3992 80.6 44.3992 80.4C44.3992 79.1 43.5992 78.6 42.5992 78.6C41.7992 78.6 40.7992 78.9 39.8992 79.3L38.4992 86.6C38.4992 86.8 38.2992 86.9 38.0992 86.9H37.9992C37.8992 86.9 37.6992 86.8 37.6992 86.6L39.0992 78.4C39.0992 78.2 39.2992 78.1 39.4992 78.1H39.5992C39.6992 78.1 39.7992 78.2 39.7992 78.3C39.7992 78.3 39.7992 78.3 39.7992 78.4V78.7C40.6992 78.3 41.5992 78 42.3992 78C43.7992 78 44.8992 78.7 44.8992 80.4C45.0992 80.6 44.9992 80.9 44.9992 81.1Z" fill="black"/>
<path d="M50.3984 78.0992C50.5984 78.0992 50.5984 78.1992 50.5984 78.3992L49.1984 86.5992C49.1984 86.7992 49.0984 86.8992 48.7984 86.8992H48.6984C48.4984 86.8992 48.3984 86.7992 48.3984 86.5992L49.7984 78.3992C49.7984 78.1992 49.8984 78.0992 50.0984 78.0992H50.3984ZM50.5984 76.4992C50.3984 76.4992 50.2984 76.3992 50.2984 76.1992L50.4984 74.9992C50.4984 74.6992 50.6984 74.6992 50.8984 74.6992H50.9984C51.1984 74.6992 51.2984 74.7992 51.2984 74.9992L51.0984 76.1992C50.9984 76.3992 50.7984 76.4992 50.5984 76.4992Z" fill="black"/>
<path d="M60.8992 81.1L59.8992 86.6C59.8992 86.8 59.6992 86.9 59.4992 86.9H59.3992C59.2992 86.9 59.1992 86.8 59.1992 86.6L60.1992 81.1C60.1992 80.8 60.2992 80.6 60.2992 80.4C60.2992 79.1 59.4992 78.6 58.4992 78.6C57.6992 78.6 56.6992 78.9 55.7992 79.3L54.4992 86.6C54.4992 86.8 54.2992 86.9 54.0992 86.9H53.9992C53.8992 86.9 53.6992 86.8 53.6992 86.6L55.0992 78.4C55.0992 78.2 55.2992 78.1 55.4992 78.1H55.5992C55.6992 78.1 55.7992 78.2 55.7992 78.3C55.7992 78.3 55.7992 78.3 55.7992 78.4V78.7C56.6992 78.3 57.5992 78 58.3992 78C59.7992 78 60.8992 78.7 60.8992 80.4C60.8992 80.6 60.8992 80.9 60.8992 81.1Z" fill="black"/>
<path d="M71.6008 78.5996L70.1008 86.8996C69.6008 89.4996 68.6008 90.0996 66.6008 90.0996C65.5008 90.0996 64.4008 89.9996 64.1008 89.8996C63.9008 89.7996 63.8008 89.7996 63.8008 89.6996C63.8008 89.6996 63.8008 89.6996 63.8008 89.5996V89.4996C63.8008 89.3996 63.9008 89.2996 64.1008 89.2996C64.1008 89.2996 64.1008 89.2996 64.2008 89.2996C64.6008 89.3996 65.6008 89.4996 66.6008 89.4996C68.4008 89.4996 69.0008 89.0996 69.4008 86.9996V86.7996C68.9008 86.8996 67.8008 86.9996 67.2008 86.9996C65.9008 86.9996 64.4008 86.5996 64.4008 84.2996C64.4008 83.8996 64.4008 83.4996 64.5008 83.0996L64.7008 81.9996C65.2008 78.8996 66.5008 78.0996 68.8008 78.0996C69.8008 78.0996 70.8008 78.2996 71.3008 78.3996C71.4008 78.3996 71.5008 78.4996 71.5008 78.5996C71.6008 78.4996 71.6008 78.5996 71.6008 78.5996ZM68.7008 78.5996C66.9008 78.5996 65.9008 79.2996 65.4008 81.8996L65.3008 82.9996C65.2008 83.4996 65.2008 83.8996 65.2008 84.2996C65.2008 85.9996 66.2008 86.2996 67.4008 86.2996C67.9008 86.2996 69.0008 86.1996 69.5008 85.9996L70.8008 78.7996C70.2008 78.7996 69.5008 78.5996 68.7008 78.5996Z" fill="black"/>
<path d="M89.0016 77.9996C88.6016 80.1996 87.4016 81.0996 85.5016 81.3996L87.9016 86.4996C87.9016 86.5996 87.9016 86.5996 87.9016 86.6996C87.9016 86.7996 87.8016 86.9996 87.6016 86.9996H87.4016C87.3016 86.9996 87.2016 86.8996 87.2016 86.8996L84.6016 81.4996H83.8016C83.2016 81.4996 81.7016 81.4996 81.7016 81.4996L80.8016 86.6996C80.8016 86.8996 80.6016 86.9996 80.5016 86.9996H80.3016C80.2016 86.9996 80.1016 86.8996 80.1016 86.6996L82.2016 74.9996C82.2016 74.8996 82.4016 74.6996 82.5016 74.6996C83.1016 74.6996 84.4016 74.5996 85.1016 74.5996C87.7016 74.5996 89.1016 75.3996 89.1016 77.0996C89.0016 77.3996 89.0016 77.6996 89.0016 77.9996ZM84.9016 75.2996C84.2016 75.2996 83.3016 75.2996 82.8016 75.3996L81.9016 80.6996C82.3016 80.6996 83.6016 80.6996 84.1016 80.6996C86.6016 80.6996 87.9016 80.0996 88.3016 77.9996V77.8996C88.4016 77.5996 88.4016 77.3996 88.4016 77.0996C88.3016 75.6996 87.2016 75.2996 84.9016 75.2996Z" fill="black"/>
<path d="M98.5992 81.9L98.4992 82.4C98.4992 82.6 98.2992 82.7 98.0992 82.7H92.5992V83C92.5992 83.4 92.4992 83.8 92.4992 84.1C92.4992 85.9 93.3992 86.4 94.9992 86.4C95.6992 86.4 96.6992 86.3 97.4992 86.1H97.5992C97.6992 86.1 97.7992 86.1 97.7992 86.2V86.3V86.4C97.6992 86.6 97.6992 86.6 97.3992 86.7C96.4992 86.9 95.5992 87 94.7992 87C92.9992 87 91.6992 86.2 91.6992 84.1C91.6992 83.8 91.6992 83.4 91.7992 83L91.9992 81.9C92.3992 79.3 93.7992 78 95.9992 78C97.8992 78 98.6992 79.2 98.6992 80.8C98.6992 81.2 98.6992 81.5 98.5992 81.9ZM95.8992 78.6C94.0992 78.6 93.0992 79.9 92.6992 81.9V82H97.7992V81.9C97.8992 81.5 97.8992 81.1 97.8992 80.7C97.9992 79.4 97.3992 78.6 95.8992 78.6Z" fill="black"/>
<path d="M109.002 81.8994L108.902 82.2994C108.902 82.4994 108.702 82.5994 108.502 82.5994H103.002L102.902 82.8994C102.902 83.2994 102.802 83.6994 102.802 83.9994C102.802 85.7994 103.702 86.2994 105.302 86.2994C106.002 86.2994 107.002 86.1994 107.802 85.9994H107.902C108.002 85.9994 108.102 85.9994 108.102 86.0994V86.1994V86.2994C108.002 86.4994 108.002 86.4994 107.702 86.5994C106.902 86.7994 105.902 86.8994 105.202 86.8994C103.402 86.8994 102.102 86.0994 102.102 83.9994C102.102 83.6994 102.102 83.2994 102.202 82.8994L102.402 81.7994C102.802 79.1994 104.202 77.8994 106.402 77.8994C108.302 77.8994 109.102 79.0994 109.102 80.6994C109.102 81.1994 109.102 81.4994 109.002 81.8994ZM106.302 78.5994C104.502 78.5994 103.502 79.8994 103.102 81.8994V81.9994H108.202V81.8994C108.302 81.4994 108.302 81.0994 108.302 80.6994C108.402 79.3994 107.802 78.5994 106.302 78.5994Z" fill="black"/>
<path d="M119.399 81.1L118.399 86.6C118.399 86.8 118.199 86.9 117.999 86.9H117.899C117.799 86.9 117.699 86.8 117.699 86.6L118.699 81.1C118.699 80.8 118.799 80.6 118.799 80.4C118.799 79.1 117.999 78.6 116.999 78.6C116.199 78.6 115.199 78.9 114.299 79.3L112.999 86.6C112.999 86.8 112.799 86.9 112.599 86.9H112.499C112.399 86.9 112.199 86.8 112.199 86.6L113.599 78.4C113.599 78.2 113.799 78.1 113.999 78.1H114.099C114.199 78.1 114.299 78.2 114.299 78.3C114.299 78.3 114.299 78.3 114.299 78.4V78.7C115.199 78.3 116.099 78 116.899 78C118.299 78 119.399 78.7 119.399 80.4C119.499 80.6 119.499 80.9 119.399 81.1Z" fill="black"/>
<path d="M130.198 78.5996L128.698 86.8996C128.198 89.4996 127.198 90.0996 125.198 90.0996C124.098 90.0996 122.998 89.9996 122.698 89.8996C122.498 89.7996 122.398 89.7996 122.398 89.6996C122.398 89.6996 122.398 89.6996 122.398 89.5996V89.4996C122.398 89.3996 122.498 89.2996 122.698 89.2996C122.698 89.2996 122.698 89.2996 122.798 89.2996C123.198 89.3996 124.198 89.4996 125.198 89.4996C126.998 89.4996 127.598 89.0996 127.998 86.9996V86.7996C127.498 86.8996 126.398 86.9996 125.798 86.9996C124.498 86.9996 122.998 86.5996 122.998 84.2996C122.998 83.8996 122.998 83.4996 123.098 83.0996L123.298 81.9996C123.798 78.8996 125.098 78.0996 127.398 78.0996C128.398 78.0996 129.398 78.2996 129.898 78.3996C129.998 78.3996 130.098 78.4996 130.098 78.5996C130.198 78.4996 130.198 78.5996 130.198 78.5996ZM127.298 78.5996C125.498 78.5996 124.498 79.2996 123.998 81.8996L123.798 82.9996C123.698 83.4996 123.698 83.8996 123.698 84.2996C123.698 85.9996 124.698 86.2996 125.898 86.2996C126.398 86.2996 127.498 86.1996 127.998 85.9996L129.298 78.7996C128.798 78.7996 128.098 78.5996 127.298 78.5996Z" fill="black"/>
<path d="M135.099 78.0992C135.299 78.0992 135.299 78.1992 135.299 78.3992L133.899 86.5992C133.899 86.7992 133.799 86.8992 133.499 86.8992C133.299 86.8992 133.199 86.7992 133.199 86.5992L134.599 78.3992C134.599 78.1992 134.699 78.0992 134.899 78.0992H135.099ZM135.299 76.4992C135.099 76.4992 134.999 76.3992 134.999 76.1992L135.199 74.9992C135.199 74.6992 135.399 74.6992 135.599 74.6992H135.699C135.899 74.6992 135.999 74.7992 135.999 74.9992L135.799 76.1992C135.699 76.3992 135.599 76.4992 135.299 76.4992Z" fill="black"/>
<path d="M145.598 81.1L144.598 86.6C144.598 86.8 144.398 86.9 144.198 86.9H144.098C143.998 86.9 143.898 86.8 143.898 86.6L144.898 81.1C144.898 80.8 144.998 80.6 144.998 80.4C144.998 79.1 144.198 78.6 143.198 78.6C142.398 78.6 141.398 78.9 140.498 79.3L139.198 86.6C139.198 86.8 138.998 86.9 138.798 86.9H138.698C138.598 86.9 138.398 86.8 138.398 86.6L139.798 78.4C139.798 78.2 139.998 78.1 140.198 78.1H140.298C140.398 78.1 140.498 78.2 140.498 78.3C140.498 78.3 140.498 78.3 140.498 78.4V78.7C141.398 78.3 142.298 78 143.098 78C144.498 78 145.598 78.7 145.598 80.4C145.698 80.6 145.598 80.9 145.598 81.1Z" fill="black"/>
<path d="M156.101 81.8994L156.001 82.2994C156.001 82.4994 155.801 82.5994 155.601 82.5994H150.101V82.8994C150.101 83.2994 150.001 83.6994 150.001 83.9994C150.001 85.7994 150.901 86.2994 152.501 86.2994C153.201 86.2994 154.201 86.1994 155.001 85.9994H155.101C155.201 85.9994 155.301 85.9994 155.301 86.0994V86.1994V86.2994C155.201 86.4994 155.201 86.4994 154.901 86.5994C154.101 86.7994 153.101 86.8994 152.401 86.8994C150.601 86.8994 149.301 86.0994 149.301 83.9994C149.301 83.6994 149.301 83.2994 149.401 82.8994L149.601 81.7994C150.001 79.1994 151.401 77.8994 153.601 77.8994C155.501 77.8994 156.301 79.0994 156.301 80.6994C156.201 81.1994 156.201 81.4994 156.101 81.8994ZM153.401 78.5994C151.601 78.5994 150.601 79.8994 150.201 81.8994V81.9994H155.301V81.8994C155.401 81.4994 155.401 81.0994 155.401 80.6994C155.501 79.3994 154.901 78.5994 153.401 78.5994Z" fill="black"/>
<path d="M166.499 81.8994L166.399 82.2994C166.399 82.4994 166.199 82.5994 165.999 82.5994H160.499V82.8994C160.499 83.2994 160.399 83.6994 160.399 83.9994C160.399 85.7994 161.299 86.2994 162.899 86.2994C163.599 86.2994 164.599 86.1994 165.399 85.9994H165.499C165.599 85.9994 165.699 85.9994 165.699 86.0994V86.1994V86.2994C165.599 86.4994 165.599 86.4994 165.299 86.5994C164.499 86.7994 163.499 86.8994 162.799 86.8994C160.999 86.8994 159.699 86.0994 159.699 83.9994C159.699 83.6994 159.699 83.2994 159.799 82.8994L159.999 81.7994C160.399 79.1994 161.799 77.8994 163.999 77.8994C165.899 77.8994 166.699 79.0994 166.699 80.6994C166.599 81.1994 166.499 81.4994 166.499 81.8994ZM163.799 78.5994C161.999 78.5994 160.999 79.8994 160.599 81.8994V81.9994H165.699V81.8994C165.799 81.4994 165.799 81.0994 165.799 80.6994C165.899 79.3994 165.299 78.5994 163.799 78.5994Z" fill="black"/>
<path d="M174.502 78.1998V78.2998C174.502 78.4998 174.302 78.4998 174.102 78.4998C173.502 78.4998 172.802 78.6998 171.702 79.2998L170.402 86.4998C170.402 86.6998 170.202 86.7998 170.002 86.7998H169.902C169.802 86.7998 169.602 86.6998 169.602 86.4998L171.002 78.2998C171.002 78.0998 171.202 77.9998 171.402 77.9998H171.502C171.602 77.9998 171.702 78.0998 171.702 78.1998V78.2998L171.602 78.5998C172.502 78.0998 173.102 77.7998 173.902 77.7998C174.402 77.9998 174.502 77.9998 174.502 78.1998Z" fill="black"/>
<path d="M183.402 81.8994L183.302 82.2994C183.302 82.4994 183.102 82.5994 182.902 82.5994H177.402V82.8994C177.402 83.2994 177.302 83.6994 177.302 83.9994C177.302 85.7994 178.202 86.2994 179.802 86.2994C180.502 86.2994 181.502 86.1994 182.302 85.9994C182.402 85.9994 182.402 85.9994 182.402 85.9994C182.502 85.9994 182.602 85.9994 182.602 86.0994V86.1994V86.2994C182.502 86.4994 182.502 86.4994 182.202 86.5994C181.402 86.7994 180.402 86.8994 179.702 86.8994C177.902 86.8994 176.602 86.0994 176.602 83.9994C176.602 83.6994 176.602 83.2994 176.702 82.8994L176.902 81.7994C177.302 79.1994 178.702 77.8994 180.902 77.8994C182.802 77.8994 183.602 79.0994 183.602 80.6994C183.502 81.1994 183.502 81.4994 183.402 81.8994ZM180.702 78.5994C178.902 78.5994 177.902 79.8994 177.502 81.8994V81.9994H182.602V81.8994C182.702 81.4994 182.702 81.0994 182.702 80.6994C182.802 79.3994 182.202 78.5994 180.702 78.5994Z" fill="black"/>
<path d="M194.7 74.9992L192.7 86.3992C192.7 86.5992 192.6 86.6992 192.4 86.6992C191.6 86.7992 190.5 86.9992 189.6 86.9992C187.8 86.9992 187 85.7992 187 84.0992C187 83.7992 187 83.3992 187.1 82.9992L187.3 81.8992C187.8 79.1992 189.1 77.9992 191.2 77.9992C191.8 77.9992 192.8 78.0992 193.4 78.1992L194 74.9992C194 74.7992 194.2 74.6992 194.3 74.6992H194.5C194.6 74.6992 194.7 74.7992 194.7 74.9992ZM191 78.5992C189.3 78.5992 188.3 79.6992 187.9 81.8992L187.7 82.9992C187.6 83.3992 187.6 83.8992 187.6 84.1992C187.6 85.5992 188.2 86.2992 189.6 86.2992C190.4 86.2992 191.3 86.1992 191.9 86.0992L193.2 78.7992C192.6 78.6992 191.7 78.5992 191 78.5992Z" fill="black"/>
<path d="M0.601562 31.0986H4.00156V49.3986H17.1016V52.5986H0.601562V31.0986Z" fill="black"/>
<path d="M51.4023 49.3986V52.5986H35.4023V31.0986H51.3023V34.2986H38.9023V39.4986H51.4023V42.6986H38.9023V49.2986H51.4023V49.3986Z" fill="black"/>
<path d="M122.201 49.3986V52.5986H106.301V31.0986H122.201V34.2986H109.701V39.4986H122.201V42.6986H109.701V49.2986H122.201V49.3986Z" fill="black"/>
<path d="M87.9016 52.6986H83.6016L77.5016 44.2986H73.1016V52.5986H69.6016V31.0986H79.1016C83.4016 31.0986 86.7016 33.3986 86.7016 37.6986C86.7016 41.0986 84.6016 43.2986 81.5016 43.9986L87.9016 52.6986ZM78.8016 41.1986C81.1016 41.1986 83.1016 40.1986 83.1016 37.7986C83.1016 35.4986 81.1016 34.3986 78.8016 34.3986H73.0016V41.1986H78.8016Z" fill="black"/>
<path d="M158.802 52.6986H154.502L148.302 44.3986H143.902V52.6986H140.402V31.0986H149.902C154.202 31.0986 157.502 33.3986 157.502 37.6986C157.502 41.0986 155.402 43.2986 152.302 43.9986L158.802 52.6986ZM149.702 41.1986C152.002 41.1986 154.002 40.1986 154.002 37.7986C154.002 35.4986 152.002 34.3986 149.702 34.3986H143.902V41.1986H149.702Z" fill="black"/>
<path d="M172.201 41.8991C172.101 35.6991 176.901 30.4991 183.501 30.5991C190.101 30.4991 194.901 35.6991 194.801 41.8991C194.901 48.0991 190.001 53.2991 183.501 53.1991C177.001 53.2991 172.101 48.0991 172.201 41.8991ZM191.301 41.8991C191.301 37.3991 188.301 33.8991 183.601 33.8991C178.901 33.8991 175.901 37.3991 175.901 41.8991C175.901 46.3991 178.901 49.8991 183.601 49.8991C188.301 49.8991 191.301 46.3991 191.301 41.8991Z" fill="black"/>
<path d="M201.402 11.7995C202.602 14.6995 204.602 16.2995 207.202 17.7995C208.602 18.4995 209.802 18.9995 211.202 19.2995C211.702 15.2995 211.502 10.3995 210.702 6.79952C209.702 2.49952 208.002 -0.80048 205.602 0.19952C202.502 1.89952 201.602 8.59952 201.402 11.7995Z" fill="url(#paint0_linear_49772_1628)"/>
<path d="M204.703 28.3992C205.603 29.2992 207.203 30.0992 208.603 30.3992C210.903 30.9992 212.703 31.0992 214.803 30.9992C220.703 30.7992 225.103 28.4992 225.203 25.8992C225.303 22.0992 221.103 20.8992 218.703 20.2992C216.203 19.6992 213.803 19.7992 211.203 19.1992C210.303 25.2992 208.903 28.6992 206.403 29.0992" fill="url(#paint1_linear_49772_1628)"/>
<path d="M206.403 29.1998C208.703 29.0998 210.503 25.0998 211.203 19.2998C209.803 18.9998 208.403 18.4998 207.203 17.7998C204.203 16.1998 202.403 14.2998 201.403 11.7998C201.103 16.0998 201.503 21.2998 202.803 24.8998C203.403 26.5998 204.503 29.1998 206.403 29.1998Z" fill="url(#paint2_linear_49772_1628)"/>
<path d="M227.203 31.0996C228.308 31.0996 229.203 30.2042 229.203 29.0996C229.203 27.995 228.308 27.0996 227.203 27.0996C226.099 27.0996 225.203 27.995 225.203 29.0996C225.203 30.2042 226.099 31.0996 227.203 31.0996Z" fill="url(#paint3_linear_49772_1628)"/>
</g>
<defs>
<linearGradient id="paint0_linear_49772_1628" x1="206.55" y1="1.16302" x2="206.251" y2="28.6204" gradientUnits="userSpaceOnUse">
<stop stop-color="#2AE2E3"/>
<stop offset="0.4116" stop-color="#0088D8"/>
<stop offset="0.5239" stop-color="#0F76DE"/>
<stop offset="0.7504" stop-color="#3546ED"/>
<stop offset="1" stop-color="#650AFF"/>
</linearGradient>
<linearGradient id="paint1_linear_49772_1628" x1="198.057" y1="16.3346" x2="221.274" y2="29.5885" gradientUnits="userSpaceOnUse">
<stop offset="0.1182" stop-color="#2AE2E3"/>
<stop offset="0.5156" stop-color="#0088D8"/>
<stop offset="1" stop-color="#650AFF"/>
</linearGradient>
<linearGradient id="paint2_linear_49772_1628" x1="198.275" y1="12.8832" x2="211.327" y2="27.7273" gradientUnits="userSpaceOnUse">
<stop stop-color="#2AE2E3"/>
<stop offset="0.3393" stop-color="#0088D8"/>
<stop offset="0.4393" stop-color="#097CDC"/>
<stop offset="0.6179" stop-color="#225EE5"/>
<stop offset="0.8525" stop-color="#492DF4"/>
<stop offset="1" stop-color="#650AFF"/>
</linearGradient>
<linearGradient id="paint3_linear_49772_1628" x1="228.416" y1="27.5415" x2="225.989" y2="30.8012" gradientUnits="userSpaceOnUse">
<stop stop-color="#2AE2E3"/>
<stop offset="0.0378291" stop-color="#26D9E2"/>
<stop offset="0.2923" stop-color="#0B9FDB"/>
<stop offset="0.4144" stop-color="#0088D8"/>
<stop offset="0.5095" stop-color="#0B7ADC"/>
<stop offset="0.6885" stop-color="#2856E7"/>
<stop offset="0.9304" stop-color="#571CF9"/>
<stop offset="1" stop-color="#650AFF"/>
</linearGradient>
<clipPath id="clip0_49772_1628">
<rect width="229" height="90" fill="white" transform="translate(0.5)"/>
</clipPath>
</defs>
</svg>
